{
  "accessors": [
    {
      "bufferView": 2,
      "componentType": 5126,
      "count": 24,
      "max": [
        1.0,
        1.0,
        1.0
      ],
      "min": [
        -1.0,
        -1.0,
        -1.0
      ],
      "type": "VEC3"
    },
    {
      "bufferView": 2,
      "byteOffset": 288,
      "componentType": 5126,
      "count": 24,
      "max": [
        1.0,
        1.0,
        1.0
      ],
      "min": [
        -1.0,
        -1.0,
        -1.0
      ],
      "type": "VEC3"
    },
    {
      "bufferView": 1,
      "componentType": 5126,
      "count": 24,
      "max": [
        0.875,
        1.0
      ],
      "min": [
        0.125,
        0.0
      ],
      "type": "VEC2"
    },
    {
      "bufferView": 0,
      "componentType": 5125,
      "count": 36,
      "type": "SCALAR"
    },
    {
      "bufferView": 2,
      "byteOffset": 576,
      "componentType": 5126,
      "count": 128,
      "max": [
        0.8905647397041321,
        -6.414910316467285,
        0.0933370292186737
      ],
      "min": [
        0.782643735408783,
        -7.557261943817139,
        -0.7873200178146362
      ],
      "type": "VEC3"
    },
    {
      "bufferView": 2,
      "byteOffset": 2112,
      "componentType": 5126,
      "count": 128,
      "max": [
        0.9975770711898804,
        0.745437502861023,
        0.935161828994751
      ],
      "min": [
        -0.9975707530975342,
        -0.7805780172348022,
        -0.663534939289093
      ],
      "type": "VEC3"
    },
    {
      "bufferView": 1,
      "byteOffset": 192,
      "componentType": 5126,
      "count": 128,
      "max": [
        0.9900000095367432,
        0.49000000953674316
      ],
      "min": [
        0.01000000536441803,
        0.01000000536441803
      ],
      "type": "VEC2"
    },
    {
      "bufferView": 0,
      "byteOffset": 144,
      "componentType": 5125,
      "count": 186,
      "type": "SCALAR"
    },
    {
      "bufferView": 2,
      "byteOffset": 3648,
      "componentType": 5126,
      "count": 1861,
      "max": [
        0.9134858250617981,
        -0.6273984909057617,
        0.4212113320827484
      ],
      "min": [
        -0.9218676090240479,
        -7.4735517501831055,
        -0.8796687126159668
      ],
      "type": "VEC3"
    },
    {
      "bufferView": 2,
      "byteOffset": 25980,
      "componentType": 5126,
      "count": 1861,
      "max": [
        0.999954879283905,
        1.0,
        0.95677649974823
      ],
      "min": [
        -0.999954879283905,
        -1.0,
        -0.997612714767456
      ],
      "type": "VEC3"
    },
    {
      "bufferView": 1,
      "byteOffset": 1216,
      "componentType": 5126,
      "count": 1861,
      "max": [
        1.0,
        1.0
      ],
      "min": [
        0.0,
        0.01000000536441803
      ],
      "type": "VEC2"
    },
    {
      "bufferView": 0,
      "byteOffset": 888,
      "componentType": 5125,
      "count": 3720,
      "type": "SCALAR"
    },
    {
      "bufferView": 2,
      "byteOffset": 48312,
      "componentType": 5126,
      "count": 128,
      "max": [
        0.3254503011703491,
        -6.414910316467285,
        0.0933370292186737
      ],
      "min": [
        0.2175292670726776,
        -7.557261943817139,
        -0.7873200178146362
      ],
      "type": "VEC3"
    },
    {
      "bufferView": 2,
      "byteOffset": 49848,
      "componentType": 5126,
      "count": 128,
      "max": [
        0.9975770711898804,
        0.745437502861023,
        0.9351618885993958
      ],
      "min": [
        -0.9975707530975342,
        -0.7805773019790649,
        -0.663534939289093
      ],
      "type": "VEC3"
    },
    {
      "bufferView": 1,
      "byteOffset": 16104,
      "componentType": 5126,
      "count": 128,
      "max": [
        0.9900000095367432,
        0.49000000953674316
      ],
      "min": [
        0.01000000536441803,
        0.01000000536441803
      ],
      "type": "VEC2"
    },
    {
      "bufferView": 0,
      "byteOffset": 15768,
      "componentType": 5125,
      "count": 186,
      "type": "SCALAR"
    },
    {
      "bufferView": 2,
      "byteOffset": 51384,
      "componentType": 5126,
      "count": 128,
      "max": [
        -0.2591994106769562,
        -6.414910316467285,
        0.0933370292186737
      ],
      "min": [
        -0.3671204447746277,
        -7.557261943817139,
        -0.7873200178146362
      ],
      "type": "VEC3"
    },
    {
      "bufferView": 2,
      "byteOffset": 52920,
      "componentType": 5126,
      "count": 128,
      "max": [
        0.9975770711898804,
        0.745437502861023,
        0.9351618885993958
      ],
      "min": [
        -0.9975707530975342,
        -0.7805773615837097,
        -0.663534939289093
      ],
      "type": "VEC3"
    },
    {
      "bufferView": 1,
      "byteOffset": 17128,
      "componentType": 5126,
      "count": 128,
      "max": [
        0.9900000095367432,
        0.49000000953674316
      ],
      "min": [
        0.01000000536441803,
        0.01000000536441803
      ],
      "type": "VEC2"
    },
    {
      "bufferView": 0,
      "byteOffset": 16512,
      "componentType": 5125,
      "count": 186,
      "type": "SCALAR"
    },
    {
      "bufferView": 2,
      "byteOffset": 54456,
      "componentType": 5126,
      "count": 128,
      "max": [
        -0.7977249026298523,
        -6.414910316467285,
        0.0933370292186737
      ],
      "min": [
        -0.9056459069252014,
        -7.557261943817139,
        -0.7873200178146362
      ],
      "type": "VEC3"
    },
    {
      "bufferView": 2,
      "byteOffset": 55992,
      "componentType": 5126,
      "count": 128,
      "max": [
        0.9975770711898804,
        0.745437502861023,
        0.935161828994751
      ],
      "min": [
        -0.9975707530975342,
        -0.7805772423744202,
        -0.663534939289093
      ],
      "type": "VEC3"
    },
    {
      "bufferView": 1,
      "byteOffset": 18152,
      "componentType": 5126,
      "count": 128,
      "max": [
        0.9900000095367432,
        0.49000000953674316
      ],
      "min": [
        0.01000000536441803,
        0.01000000536441803
      ],
      "type": "VEC2"
    },
    {
      "bufferView": 0,
      "byteOffset": 17256,
      "componentType": 5125,
      "count": 186,
      "type": "SCALAR"
    }
  ],
  "asset": {
    "extras": {
      "author": "penova (https://sketchfab.com/penara2009)",
      "license": "CC-BY-4.0 (http://creativecommons.org/licenses/by/4.0/)",
      "source": "https://sketchfab.com/3d-models/spotlights-275e583d1f424eb59eeae184e3145adc",
      "title": "Spotlights"
    },
    "generator": "Sketchfab-11.30.0",
    "version": "2.0"
  },
  "bufferViews": [
    {
      "buffer": 0,
      "byteLength": 18000,
      "name": "floatBufferViews",
      "target": 34963
    },
    {
      "buffer": 0,
      "byteLength": 19176,
      "byteOffset": 18000,
      "byteStride": 8,
      "name": "floatBufferViews",
      "target": 34962
    },
    {
      "buffer": 0,
      "byteLength": 57528,
      "byteOffset": 37176,
      "byteStride": 12,
      "name": "floatBufferViews",
      "target": 34962
    }
  ],
  "buffers": [
    {
      "byteLength": 94704,
      "uri": "scene.bin"
    }
  ],
  "materials": [
    {
      "doubleSided": true,
      "name": "material_0",
      "pbrMetallicRoughness": {
        "metallicFactor": 0.0,
        "roughnessFactor": 0.6
      }
    },
    {
      "doubleSided": true,
      "name": "Material",
      "pbrMetallicRoughness": {
        "baseColorFactor": [
          0.8,
          0.8,
          0.8,
          1.0
        ],
        "metallicFactor": 0.0,
        "roughnessFactor": 0.4
      }
    },
    {
      "doubleSided": true,
      "name": "Material.002",
      "pbrMetallicRoughness": {
        "baseColorFactor": [
          0.900461,
          0.95509,
          0.254715,
          1.0
        ],
        "metallicFactor": 0.0,
        "roughnessFactor": 0.5
      }
    },
    {
      "doubleSided": true,
      "name": "Material.001",
      "pbrMetallicRoughness": {
        "baseColorFactor": [
          0.0,
          0.0,
          0.0,
          1.0
        ],
        "metallicFactor": 0.279412,
        "roughnessFactor": 0.5
      }
    },
    {
      "doubleSided": true,
      "name": "Material.003",
      "pbrMetallicRoughness": {
        "baseColorFactor": [
          0.900461,
          0.95509,
          0.254715,
          1.0
        ],
        "metallicFactor": 0.0,
        "roughnessFactor": 0.5
      }
    },
    {
      "doubleSided": true,
      "name": "Material.005",
      "pbrMetallicRoughness": {
        "baseColorFactor": [
          0.900461,
          0.95509,
          0.254715,
          1.0
        ],
        "metallicFactor": 0.0,
        "roughnessFactor": 0.5
      }
    }
  ],
  "meshes": [
    {
      "name": "Object_0",
      "primitives": [
        {
          "attributes": {
            "NORMAL": 1,
            "POSITION": 0,
            "TEXCOORD_0": 2
          },
          "indices": 3,
          "material": 1,
          "mode": 4
        }
      ]
    },
    {
      "name": "Object_1",
      "primitives": [
        {
          "attributes": {
            "NORMAL": 5,
            "POSITION": 4,
            "TEXCOORD_0": 6
          },
          "indices": 7,
          "material": 2,
          "mode": 4
        }
      ]
    },
    {
      "name": "Object_2",
      "primitives": [
        {
          "attributes": {
            "NORMAL": 9,
            "POSITION": 8,
            "TEXCOORD_0": 10
          },
          "indices": 11,
          "material": 3,
          "mode": 4
        }
      ]
    },
    {
      "name": "Object_3",
      "primitives": [
        {
          "attributes": {
            "NORMAL": 13,
            "POSITION": 12,
            "TEXCOORD_0": 14
          },
          "indices": 15,
          "material": 4,
          "mode": 4
        }
      ]
    },
    {
      "name": "Object_4",
      "primitives": [
        {
          "attributes": {
            "NORMAL": 17,
            "POSITION": 16,
            "TEXCOORD_0": 18
          },
          "indices": 19,
          "material": 5,
          "mode": 4
        }
      ]
    },
    {
      "name": "Object_5",
      "primitives": [
        {
          "attributes": {
            "NORMAL": 21,
            "POSITION": 20,
            "TEXCOORD_0": 22
          },
          "indices": 23,
          "material": 0,
          "mode": 4
        }
      ]
    }
  ],
  "nodes": [
    {
      "children": [
        1
      ],
      "matrix": [
        1.0,
        0.0,
        0.0,
        0.0,
        0.0,
        2.220446049250313e-16,
        -1.0,
        0.0,
        0.0,
        1.0,
        2.220446049250313e-16,
        0.0,
        0.0,
        0.0,
        0.0,
        1.0
      ],
      "name": "Sketchfab_model"
    },
    {
      "children": [
        2
      ],
      "name": "root"
    },
    {
      "children": [
        3
      ],
      "matrix": [
        1.0,
        0.0,
        0.0,
        0.0,
        0.0,
        2.220446049250313e-16,
        1.0,
        0.0,
        0.0,
        -1.0,
        2.220446049250313e-16,
        0.0,
        0.0,
        0.0,
        0.0,
        1.0
      ],
      "name": "GLTF_SceneRootNode"
    },
    {
      "children": [
        4,
        5,
        6,
        7,
        8,
        9
      ],
      "matrix": [
        -1.8647360225258935,
        0.0,
        0.1441606959575936,
        0.0,
        0.0,
        0.08099853992462158,
        0.0,
        0.0,
        -0.016141968045306182,
        0.0,
        -0.20879830725427895,
        0.0,
        0.0,
        6.241331100463867,
        0.0,
        1.0
      ],
      "name": "Cube_0"
    },
    {
      "mesh": 0,
      "name": "Object_4"
    },
    {
      "mesh": 1,
      "name": "Object_5"
    },
    {
      "mesh": 2,
      "name": "Object_6"
    },
    {
      "mesh": 3,
      "name": "Object_7"
    },
    {
      "mesh": 4,
      "name": "Object_8"
    },
    {
      "mesh": 5,
      "name": "Object_9"
    }
  ],
  "scene": 0,
  "scenes": [
    {
      "name": "Sketchfab_Scene",
      "nodes": [
        0
      ]
    }
  ]
}
