{
  "accessors": [
    {
      "bufferView": 2,
      "componentType": 5126,
      "count": 3220,
      "max": [
        98.028785705566406,
        3.772355318069458,
        97.966018676757812
      ],
      "min": [
        -98.028793334960938,
        -3.7723762989044189,
        -97.965995788574219
      ],
      "type": "VEC3"
    },
    {
      "bufferView": 2,
      "byteOffset": 38640,
      "componentType": 5126,
      "count": 3220,
      "max": [
        0.99999880790710449,
        0.99998593330383301,
        0.99999260902404785
      ],
      "min": [
        -0.99999880790710449,
        -0.99998587369918823,
        -0.99999260902404785
      ],
      "type": "VEC3"
    },
    {
      "bufferView": 3,
      "componentType": 5126,
      "count": 3220,
      "max": [
        0.99999970197677612,
        1,
        0.99999594688415527,
        1
      ],
      "min": [
        -0.99999940395355225,
        -1,
        -0.99999862909317017,
        1
      ],
      "type": "VEC4"
    },
    {
      "bufferView": 1,
      "componentType": 5126,
      "count": 3220,
      "max": [
        0.99664425849914551,
        0.99957120418548584
      ],
      "min": [
        0.00094653671840205789,
        0.0035574436187744141
      ],
      "type": "VEC2"
    },
    {
      "bufferView": 0,
      "componentType": 5125,
      "count": 10452,
      "max": [
        3219
      ],
      "min": [
        0
      ],
      "type": "SCALAR"
    }
  ],
  "asset": {
    "extras": {
      "author": "kirwach (https://sketchfab.com/kirwach)",
      "license": "CC-BY-4.0 (http://creativecommons.org/licenses/by/4.0/)",
      "source": "https://sketchfab.com/models/2a3354931d284fffb7220c8a7624ba55",
      "title": "Painting"
    },
    "generator": "Sketchfab-4.25.0",
    "version": "2.0"
  },
  "bufferViews": [
    {
      "buffer": 0,
      "byteLength": 41808,
      "byteOffset": 0,
      "name": "floatBufferViews",
      "target": 34963
    },
    {
      "buffer": 0,
      "byteLength": 25760,
      "byteOffset": 41808,
      "byteStride": 8,
      "name": "floatBufferViews",
      "target": 34962
    },
    {
      "buffer": 0,
      "byteLength": 77280,
      "byteOffset": 67568,
      "byteStride": 12,
      "name": "floatBufferViews",
      "target": 34962
    },
    {
      "buffer": 0,
      "byteLength": 51520,
      "byteOffset": 144848,
      "byteStride": 16,
      "name": "floatBufferViews",
      "target": 34962
    }
  ],
  "buffers": [
    {
      "byteLength": 196368,
      "uri": "scene.bin"
    }
  ],
  "extensionsRequired": [
    "KHR_materials_pbrSpecularGlossiness"
  ],
  "extensionsUsed": [
    "KHR_materials_pbrSpecularGlossiness"
  ],
  "images": [
    {
      "uri": "textures/material0_diffuse.png"
    }
  ],
  "materials": [
    {
      "doubleSided": true,
      "extensions": {
        "KHR_materials_pbrSpecularGlossiness": {
          "diffuseFactor": [
            1,
            1,
            1,
            1
          ],
          "diffuseTexture": {
            "index": 0,
            "texCoord": 0
          },
          "glossinessFactor": 1,
          "specularFactor": [
            0.0077272820000000002,
            0.0077272820000000002,
            0.0077272820000000002
          ]
        }
      },
      "name": "material0"
    }
  ],
  "meshes": [
    {
      "primitives": [
        {
          "attributes": {
            "NORMAL": 1,
            "POSITION": 0,
            "TANGENT": 2,
            "TEXCOORD_0": 3
          },
          "indices": 4,
          "material": 0,
          "mode": 4
        }
      ]
    }
  ],
  "nodes": [
    {
      "children": [
        1
      ],
      "name": "RootNode (gltf orientation matrix)",
      "rotation": [
        -0.70710678118654746,
        -0,
        -0,
        0.70710678118654757
      ]
    },
    {
      "children": [
        2
      ],
      "name": "RootNode (model correction matrix)"
    },
    {
      "children": [
        3
      ],
      "name": "Painting.obj.cleaner.materialmerger.gles"
    },
    {
      "mesh": 0,
      "name": ""
    }
  ],
  "samplers": [
    {
      "magFilter": 9729,
      "minFilter": 9987,
      "wrapS": 10497,
      "wrapT": 10497
    }
  ],
  "scene": 0,
  "scenes": [
    {
      "name": "OSG_Scene",
      "nodes": [
        0
      ]
    }
  ],
  "textures": [
    {
      "sampler": 0,
      "source": 0
    }
  ]
}

