{
  "accessors": [
    {
      "bufferView": 2,
      "componentType": 5126,
      "count": 19,
      "max": [
        7.2462267875671387,
        -0.34256699681282043,
        14.351743698120117
      ],
      "min": [
        -14.302543640136719,
        -23.015613555908203,
        -7.8774371147155762
      ],
      "type": "VEC3"
    },
    {
      "bufferView": 2,
      "byteOffset": 228,
      "componentType": 5126,
      "count": 19,
      "max": [
        0.72587591409683228,
        0.68770641088485718,
        0.98995810747146606
      ],
      "min": [
        -0.7258763313293457,
        -0.68770623207092285,
        -0.98995822668075562
      ],
      "type": "VEC3"
    },
    {
      "bufferView": 3,
      "componentType": 5126,
      "count": 19,
      "max": [
        0.67976528406143188,
        0.72008967399597168,
        0.13925246894359589,
        1
      ],
      "min": [
        -0.68148934841156006,
        -0.75287961959838867,
        -0.13925175368785858,
        1
      ],
      "type": "VEC4"
    },
    {
      "bufferView": 1,
      "componentType": 5126,
      "count": 19,
      "max": [
        1,
        1
      ],
      "min": [
        0,
        0
      ],
      "type": "VEC2"
    },
    {
      "bufferView": 0,
      "componentType": 5125,
      "count": 30,
      "max": [
        18
      ],
      "min": [
        0
      ],
      "type": "SCALAR"
    },
    {
      "bufferView": 2,
      "byteOffset": 456,
      "componentType": 5126,
      "count": 65532,
      "max": [
        7.1752519607543945,
        -1.6617419719696045,
        14.417831420898438
      ],
      "min": [
        -13.04863452911377,
        -21.96287727355957,
        -8.2006340026855469
      ],
      "type": "VEC3"
    },
    {
      "bufferView": 2,
      "byteOffset": 786840,
      "componentType": 5126,
      "count": 65532,
      "max": [
        0.99993014335632324,
        0.64952003955841064,
        0.99993085861206055
      ],
      "min": [
        -0.63597124814987183,
        -0.9999617338180542,
        -0.98269844055175781
      ],
      "type": "VEC3"
    },
    {
      "bufferView": 3,
      "byteOffset": 304,
      "componentType": 5126,
      "count": 65532,
      "max": [
        0.88604050874710083,
        0.8420330286026001,
        0.98500412702560425,
        1
      ],
      "min": [
        -0.9999997615814209,
        -0.99999266862869263,
        -0.98429417610168457,
        -1
      ],
      "type": "VEC4"
    },
    {
      "bufferView": 0,
      "byteOffset": 120,
      "componentType": 5125,
      "count": 309096,
      "max": [
        65531
      ],
      "min": [
        0
      ],
      "type": "SCALAR"
    },
    {
      "bufferView": 2,
      "byteOffset": 1573224,
      "componentType": 5126,
      "count": 65532,
      "max": [
        7.6721148490905762,
        -1.0978200435638428,
        14.486395835876465
      ],
      "min": [
        -12.928808212280273,
        -23.383766174316406,
        -8.2256717681884766
      ],
      "type": "VEC3"
    },
    {
      "bufferView": 2,
      "byteOffset": 2359608,
      "componentType": 5126,
      "count": 65532,
      "max": [
        0.99999552965164185,
        0.69458246231079102,
        0.99968850612640381
      ],
      "min": [
        -0.6574023962020874,
        -0.99997168779373169,
        -0.99089866876602173
      ],
      "type": "VEC3"
    },
    {
      "bufferView": 3,
      "byteOffset": 1048816,
      "componentType": 5126,
      "count": 65532,
      "max": [
        0.94674861431121826,
        0.90816384553909302,
        0.97392094135284424,
        1
      ],
      "min": [
        -0.99989283084869385,
        -0.999988853931427,
        -0.89633655548095703,
        -1
      ],
      "type": "VEC4"
    },
    {
      "bufferView": 0,
      "byteOffset": 1236504,
      "componentType": 5125,
      "count": 315177,
      "max": [
        65531
      ],
      "min": [
        0
      ],
      "type": "SCALAR"
    },
    {
      "bufferView": 2,
      "byteOffset": 3145992,
      "componentType": 5126,
      "count": 65532,
      "max": [
        7.0496950149536133,
        -1.1652189493179321,
        14.449049949645996
      ],
      "min": [
        -12.8682861328125,
        -23.393274307250977,
        -8.2420740127563477
      ],
      "type": "VEC3"
    },
    {
      "bufferView": 2,
      "byteOffset": 3932376,
      "componentType": 5126,
      "count": 65532,
      "max": [
        0.99996596574783325,
        0.83039367198944092,
        0.99992847442626953
      ],
      "min": [
        -0.79104197025299072,
        -0.99997818470001221,
        -0.98469150066375732
      ],
      "type": "VEC3"
    },
    {
      "bufferView": 3,
      "byteOffset": 2097328,
      "componentType": 5126,
      "count": 65532,
      "max": [
        0.98395472764968872,
        0.86639732122421265,
        0.98500412702560425,
        1
      ],
      "min": [
        -0.99998962879180908,
        -0.99999207258224487,
        -0.99407786130905151,
        -1
      ],
      "type": "VEC4"
    },
    {
      "bufferView": 0,
      "byteOffset": 2497212,
      "componentType": 5125,
      "count": 307707,
      "max": [
        65531
      ],
      "min": [
        0
      ],
      "type": "SCALAR"
    },
    {
      "bufferView": 2,
      "byteOffset": 4718760,
      "componentType": 5126,
      "count": 65533,
      "max": [
        7.4981479644775391,
        -1.1564680337905884,
        14.486395835876465
      ],
      "min": [
        -12.984667778015137,
        -23.303211212158203,
        -8.2281723022460938
      ],
      "type": "VEC3"
    },
    {
      "bufferView": 2,
      "byteOffset": 5505156,
      "componentType": 5126,
      "count": 65533,
      "max": [
        0.99996596574783325,
        0.85060989856719971,
        0.99993085861206055
      ],
      "min": [
        -0.92522239685058594,
        -0.99998432397842407,
        -0.99493420124053955
      ],
      "type": "VEC3"
    },
    {
      "bufferView": 3,
      "byteOffset": 3145840,
      "componentType": 5126,
      "count": 65533,
      "max": [
        0.98395472764968872,
        0.88098883628845215,
        0.93281078338623047,
        1
      ],
      "min": [
        -0.9999997615814209,
        -0.99999231100082397,
        -0.99407786130905151,
        -1
      ],
      "type": "VEC4"
    },
    {
      "bufferView": 0,
      "byteOffset": 3728040,
      "componentType": 5125,
      "count": 199911,
      "max": [
        65532
      ],
      "min": [
        0
      ],
      "type": "SCALAR"
    },
    {
      "bufferView": 2,
      "byteOffset": 6291552,
      "componentType": 5126,
      "count": 29172,
      "max": [
        7.713259220123291,
        -1.1584190130233765,
        14.460751533508301
      ],
      "min": [
        -13.54764461517334,
        -23.445671081542969,
        -8.2468032836914062
      ],
      "type": "VEC3"
    },
    {
      "bufferView": 2,
      "byteOffset": 6641616,
      "componentType": 5126,
      "count": 29172,
      "max": [
        0.99995076656341553,
        0.9273490309715271,
        0.99981379508972168
      ],
      "min": [
        -0.79224014282226562,
        -0.99994474649429321,
        -0.99997496604919434
      ],
      "type": "VEC3"
    },
    {
      "bufferView": 3,
      "byteOffset": 4194368,
      "componentType": 5126,
      "count": 29172,
      "max": [
        0.9952278733253479,
        0.90816384553909302,
        0.93369734287261963,
        1
      ],
      "min": [
        -0.99997627735137939,
        -0.99991583824157715,
        -0.92665702104568481,
        -1
      ],
      "type": "VEC4"
    },
    {
      "bufferView": 0,
      "byteOffset": 4527684,
      "componentType": 5125,
      "count": 145242,
      "max": [
        29171
      ],
      "min": [
        0
      ],
      "type": "SCALAR"
    }
  ],
  "asset": {
    "extras": {
      "author": "brrrendan (https://sketchfab.com/brrrendan)",
      "license": "CC-BY-4.0 (http://creativecommons.org/licenses/by/4.0/)",
      "source": "https://sketchfab.com/models/679e16281fa649c18ca5e2d4fdb3e33c",
      "title": "PAINTING 4"
    },
    "generator": "Sketchfab-3.29.3",
    "version": "2.0"
  },
  "bufferViews": [
    {
      "buffer": 0,
      "byteLength": 5108652,
      "byteOffset": 0,
      "name": "floatBufferViews",
      "target": 34963
    },
    {
      "buffer": 0,
      "byteLength": 152,
      "byteOffset": 5108652,
      "byteStride": 8,
      "name": "floatBufferViews",
      "target": 34962
    },
    {
      "buffer": 0,
      "byteLength": 6991680,
      "byteOffset": 5108804,
      "byteStride": 12,
      "name": "floatBufferViews",
      "target": 34962
    },
    {
      "buffer": 0,
      "byteLength": 4661120,
      "byteOffset": 12100484,
      "byteStride": 16,
      "name": "floatBufferViews",
      "target": 34962
    }
  ],
  "buffers": [
    {
      "byteLength": 16761604,
      "uri": "scene.bin"
    }
  ],
  "extensionsRequired": [
    "KHR_materials_pbrSpecularGlossiness"
  ],
  "extensionsUsed": [
    "KHR_materials_pbrSpecularGlossiness"
  ],
  "images": [
    {
      "uri": "textures/Wood_Fraxinus_diffuse.jpeg"
    }
  ],
  "materials": [
    {
      "doubleSided": true,
      "emissiveFactor": [
        0,
        0,
        0
      ],
      "extensions": {
        "KHR_materials_pbrSpecularGlossiness": {
          "diffuseFactor": [
            1,
            1,
            1,
            1
          ],
          "diffuseTexture": {
            "index": 0,
            "texCoord": 0
          },
          "glossinessFactor": 0.80000000000000004,
          "specularFactor": [
            0,
            0,
            0
          ]
        }
      },
      "name": "Wood_Fraxinus"
    },
    {
      "doubleSided": true,
      "emissiveFactor": [
        0,
        0,
        0
      ],
      "extensions": {
        "KHR_materials_pbrSpecularGlossiness": {
          "diffuseFactor": [
            0.078187421800000004,
            0.87136711919999998,
            0.68668531239999997,
            1
          ],
          "glossinessFactor": 0.55000000000000004,
          "specularFactor": [
            0.040000000000000001,
            0.040000000000000001,
            0.040000000000000001
          ]
        }
      },
      "name": "defaultMat"
    }
  ],
  "meshes": [
    {
      "primitives": [
        {
          "attributes": {
            "NORMAL": 1,
            "POSITION": 0,
            "TANGENT": 2,
            "TEXCOORD_0": 3
          },
          "indices": 4,
          "material": 0,
          "mode": 4
        }
      ]
    },
    {
      "primitives": [
        {
          "attributes": {
            "NORMAL": 6,
            "POSITION": 5,
            "TANGENT": 7
          },
          "indices": 8,
          "material": 1,
          "mode": 4
        }
      ]
    },
    {
      "primitives": [
        {
          "attributes": {
            "NORMAL": 10,
            "POSITION": 9,
            "TANGENT": 11
          },
          "indices": 12,
          "material": 1,
          "mode": 4
        }
      ]
    },
    {
      "primitives": [
        {
          "attributes": {
            "NORMAL": 14,
            "POSITION": 13,
            "TANGENT": 15
          },
          "indices": 16,
          "material": 1,
          "mode": 4
        }
      ]
    },
    {
      "primitives": [
        {
          "attributes": {
            "NORMAL": 18,
            "POSITION": 17,
            "TANGENT": 19
          },
          "indices": 20,
          "material": 1,
          "mode": 4
        }
      ]
    },
    {
      "primitives": [
        {
          "attributes": {
            "NORMAL": 22,
            "POSITION": 21,
            "TANGENT": 23
          },
          "indices": 24,
          "material": 1,
          "mode": 4
        }
      ]
    }
  ],
  "nodes": [
    {
      "children": [
        1
      ],
      "name": "RootNode (gltf orientation matrix)",
      "rotation": [
        -0.70710678118654746,
        -0,
        -0,
        0.70710678118654757
      ]
    },
    {
      "children": [
        2
      ],
      "matrix": [
        1,
        0,
        0,
        0,
        0,
        0,
        1,
        0,
        0,
        -1,
        0,
        0,
        0,
        0,
        0,
        1
      ],
      "name": "RootNode (model correction matrix)"
    },
    {
      "children": [
        3,
        4,
        5,
        6,
        7,
        8
      ],
      "name": "77d079da5f624281875d3e7b75dd8479.obj.cleaner"
    },
    {
      "mesh": 0,
      "name": ""
    },
    {
      "mesh": 1,
      "name": ""
    },
    {
      "mesh": 2,
      "name": ""
    },
    {
      "mesh": 3,
      "name": ""
    },
    {
      "mesh": 4,
      "name": ""
    },
    {
      "mesh": 5,
      "name": ""
    }
  ],
  "samplers": [
    {
      "magFilter": 9729,
      "minFilter": 9987,
      "wrapS": 10497,
      "wrapT": 10497
    }
  ],
  "scene": 0,
  "scenes": [
    {
      "name": "OSG_Scene",
      "nodes": [
        0
      ]
    }
  ],
  "textures": [
    {
      "sampler": 0,
      "source": 0
    }
  ]
}

