{
  "accessors": [
    {
      "bufferView": 2,
      "componentType": 5126,
      "count": 19,
      "max": [
        3.9240810871124268,
        8.1191749572753906,
        4.2608418464660645
      ],
      "min": [
        -26.30974006652832,
        -22.729290008544922,
        -7.6664681434631348
      ],
      "type": "VEC3"
    },
    {
      "bufferView": 2,
      "byteOffset": 228,
      "componentType": 5126,
      "count": 19,
      "max": [
        0.87555009126663208,
        0.81579434871673584,
        0.32242211699485779
      ],
      "min": [
        -0.87555021047592163,
        -0.81579440832138062,
        -0.93906509876251221
      ],
      "type": "VEC3"
    },
    {
      "bufferView": 3,
      "componentType": 5126,
      "count": 19,
      "max": [
        0.48012891411781311,
        0.33951231837272644,
        0.93906539678573608,
        1
      ],
      "min": [
        -0.05374329537153244,
        -0.8186185359954834,
        -0.93906539678573608,
        1
      ],
      "type": "VEC4"
    },
    {
      "bufferView": 1,
      "componentType": 5126,
      "count": 19,
      "max": [
        1,
        1
      ],
      "min": [
        0,
        0
      ],
      "type": "VEC2"
    },
    {
      "bufferView": 0,
      "componentType": 5125,
      "count": 30,
      "max": [
        18
      ],
      "min": [
        0
      ],
      "type": "SCALAR"
    },
    {
      "bufferView": 2,
      "byteOffset": 456,
      "componentType": 5126,
      "count": 1929,
      "max": [
        1.3492089509963989,
        8.9508953094482422,
        3.5766439437866211
      ],
      "min": [
        -24.915515899658203,
        -17.062244415283203,
        -6.2075819969177246
      ],
      "type": "VEC3"
    },
    {
      "bufferView": 2,
      "byteOffset": 23604,
      "componentType": 5126,
      "count": 1929,
      "max": [
        0.98995852470397949,
        0.98899465799331665,
        0.90017592906951904
      ],
      "min": [
        -0.99991905689239502,
        -0.90546548366546631,
        -0.99910348653793335
      ],
      "type": "VEC3"
    },
    {
      "bufferView": 3,
      "byteOffset": 304,
      "componentType": 5126,
      "count": 1929,
      "max": [
        0.91098934412002563,
        0.99948960542678833,
        0.9968762993812561,
        1
      ],
      "min": [
        -0.91971170902252197,
        -0.67405015230178833,
        -0.99370211362838745,
        -1
      ],
      "type": "VEC4"
    },
    {
      "bufferView": 0,
      "byteOffset": 120,
      "componentType": 5125,
      "count": 8412,
      "max": [
        1928
      ],
      "min": [
        0
      ],
      "type": "SCALAR"
    },
    {
      "bufferView": 2,
      "byteOffset": 46752,
      "componentType": 5126,
      "count": 24024,
      "max": [
        4.2834792137145996,
        2.9197499752044678,
        0.74270498752593994
      ],
      "min": [
        -5.2700099945068359,
        -13.464003562927246,
        -6.090939998626709
      ],
      "type": "VEC3"
    },
    {
      "bufferView": 2,
      "byteOffset": 335040,
      "componentType": 5126,
      "count": 24024,
      "max": [
        0.99535673856735229,
        0.99924701452255249,
        0.89713054895401001
      ],
      "min": [
        -0.99451613426208496,
        -0.83204954862594604,
        -0.99999028444290161
      ],
      "type": "VEC3"
    },
    {
      "bufferView": 3,
      "byteOffset": 31168,
      "componentType": 5126,
      "count": 24024,
      "max": [
        0.81753265857696533,
        0.99965280294418335,
        0.93572288751602173,
        1
      ],
      "min": [
        -0.99239057302474976,
        -0.93610352277755737,
        -0.91980266571044922,
        -1
      ],
      "type": "VEC4"
    },
    {
      "bufferView": 0,
      "byteOffset": 33768,
      "componentType": 5125,
      "count": 139368,
      "max": [
        24023
      ],
      "min": [
        0
      ],
      "type": "SCALAR"
    },
    {
      "bufferView": 2,
      "byteOffset": 623328,
      "componentType": 5126,
      "count": 65532,
      "max": [
        -0.52263402938842773,
        8.9207830429077148,
        3.3982000350952148
      ],
      "min": [
        -21.123100280761719,
        -18.233606338500977,
        -6.9770450592041016
      ],
      "type": "VEC3"
    },
    {
      "bufferView": 2,
      "byteOffset": 1409712,
      "componentType": 5126,
      "count": 65532,
      "max": [
        0.99803555011749268,
        0.99754643440246582,
        0.49817413091659546
      ],
      "min": [
        -0.99649780988693237,
        -0.93428009748458862,
        -0.9999808669090271
      ],
      "type": "VEC3"
    },
    {
      "bufferView": 3,
      "byteOffset": 415552,
      "componentType": 5126,
      "count": 65532,
      "max": [
        0.90807294845581055,
        0.99972802400588989,
        0.99294912815093994,
        1
      ],
      "min": [
        -0.97354352474212646,
        -0.92738461494445801,
        -0.99532747268676758,
        -1
      ],
      "type": "VEC4"
    },
    {
      "bufferView": 0,
      "byteOffset": 591240,
      "componentType": 5125,
      "count": 343071,
      "max": [
        65531
      ],
      "min": [
        0
      ],
      "type": "SCALAR"
    },
    {
      "bufferView": 2,
      "byteOffset": 2196096,
      "componentType": 5126,
      "count": 56404,
      "max": [
        1.9570109844207764,
        8.9508953094482422,
        3.5134239196777344
      ],
      "min": [
        -20.856060028076172,
        -18.136398315429688,
        -6.9563970565795898
      ],
      "type": "VEC3"
    },
    {
      "bufferView": 2,
      "byteOffset": 2872944,
      "componentType": 5126,
      "count": 56404,
      "max": [
        0.9923703670501709,
        0.99855208396911621,
        0.75463783740997314
      ],
      "min": [
        -0.99984991550445557,
        -0.9098781943321228,
        -0.99999886751174927
      ],
      "type": "VEC3"
    },
    {
      "bufferView": 3,
      "byteOffset": 1464064,
      "componentType": 5126,
      "count": 56404,
      "max": [
        0.90807294845581055,
        0.99972802400588989,
        0.9972420334815979,
        1
      ],
      "min": [
        -0.99614149332046509,
        -0.98855811357498169,
        -0.99818891286849976,
        -1
      ],
      "type": "VEC4"
    },
    {
      "bufferView": 0,
      "byteOffset": 1963524,
      "componentType": 5125,
      "count": 256065,
      "max": [
        56403
      ],
      "min": [
        0
      ],
      "type": "SCALAR"
    },
    {
      "bufferView": 2,
      "byteOffset": 3549792,
      "componentType": 5126,
      "count": 65532,
      "max": [
        -6.5138349533081055,
        2.1034009456634521,
        1.2922680377960205
      ],
      "min": [
        -27.239627838134766,
        -22.698627471923828,
        -7.8579530715942383
      ],
      "type": "VEC3"
    },
    {
      "bufferView": 2,
      "byteOffset": 4336176,
      "componentType": 5126,
      "count": 65532,
      "max": [
        0.97279554605484009,
        0.99737095832824707,
        0.60771912336349487
      ],
      "min": [
        -0.99977493286132812,
        -0.94267386198043823,
        -0.99999505281448364
      ],
      "type": "VEC3"
    },
    {
      "bufferView": 3,
      "byteOffset": 2366528,
      "componentType": 5126,
      "count": 65532,
      "max": [
        0.97311294078826904,
        0.99311208724975586,
        0.99981331825256348,
        1
      ],
      "min": [
        -0.99281132221221924,
        -0.98930943012237549,
        -0.99758744239807129,
        -1
      ],
      "type": "VEC4"
    },
    {
      "bufferView": 0,
      "byteOffset": 2987784,
      "componentType": 5125,
      "count": 352383,
      "max": [
        65531
      ],
      "min": [
        0
      ],
      "type": "SCALAR"
    },
    {
      "bufferView": 2,
      "byteOffset": 5122560,
      "componentType": 5126,
      "count": 23131,
      "max": [
        -6.7913532257080078,
        2.074059009552002,
        1.2353880405426025
      ],
      "min": [
        -27.283134460449219,
        -22.755464553833008,
        -7.852992057800293
      ],
      "type": "VEC3"
    },
    {
      "bufferView": 2,
      "byteOffset": 5400132,
      "componentType": 5126,
      "count": 23131,
      "max": [
        0.96307975053787231,
        0.99769937992095947,
        0.97919261455535889
      ],
      "min": [
        -0.99871891736984253,
        -0.9520190954208374,
        -0.99998873472213745
      ],
      "type": "VEC3"
    },
    {
      "bufferView": 3,
      "byteOffset": 3415040,
      "componentType": 5126,
      "count": 23131,
      "max": [
        0.97311294078826904,
        0.98489218950271606,
        0.99998295307159424,
        1
      ],
      "min": [
        -0.99281132221221924,
        -0.9006798267364502,
        -0.98424196243286133,
        -1
      ],
      "type": "VEC4"
    },
    {
      "bufferView": 0,
      "byteOffset": 4397316,
      "componentType": 5125,
      "count": 67548,
      "max": [
        23130
      ],
      "min": [
        0
      ],
      "type": "SCALAR"
    }
  ],
  "asset": {
    "extras": {
      "author": "brrrendan (https://sketchfab.com/brrrendan)",
      "license": "CC-BY-4.0 (http://creativecommons.org/licenses/by/4.0/)",
      "source": "https://sketchfab.com/models/11a4dbd0e2ae46c5809f9909d6a62d24",
      "title": "Painting 2: daea2c"
    },
    "generator": "Sketchfab-3.29.3",
    "version": "2.0"
  },
  "bufferViews": [
    {
      "buffer": 0,
      "byteLength": 4667508,
      "byteOffset": 0,
      "name": "floatBufferViews",
      "target": 34963
    },
    {
      "buffer": 0,
      "byteLength": 152,
      "byteOffset": 4667508,
      "byteStride": 8,
      "name": "floatBufferViews",
      "target": 34962
    },
    {
      "buffer": 0,
      "byteLength": 5677704,
      "byteOffset": 4667660,
      "byteStride": 12,
      "name": "floatBufferViews",
      "target": 34962
    },
    {
      "buffer": 0,
      "byteLength": 3785136,
      "byteOffset": 10345364,
      "byteStride": 16,
      "name": "floatBufferViews",
      "target": 34962
    }
  ],
  "buffers": [
    {
      "byteLength": 14130500,
      "uri": "scene.bin"
    }
  ],
  "images": [
    {
      "uri": "textures/Wood_Fraxinus_baseColor.jpeg"
    }
  ],
  "materials": [
    {
      "doubleSided": true,
      "emissiveFactor": [
        0,
        0,
        0
      ],
      "name": "Wood_Fraxinus",
      "pbrMetallicRoughness": {
        "baseColorFactor": [
          1,
          1,
          1,
          1
        ],
        "baseColorTexture": {
          "index": 0,
          "texCoord": 0
        },
        "metallicFactor": 0,
        "roughnessFactor": 0.20000000000000001
      }
    },
    {
      "doubleSided": true,
      "emissiveFactor": [
        0,
        0,
        0
      ],
      "name": "defaultMat",
      "pbrMetallicRoughness": {
        "baseColorFactor": [
          0.70110189190000005,
          0.82278575440000001,
          0.0251868596,
          1
        ],
        "metallicFactor": 0,
        "roughnessFactor": 0.20000000000000001
      }
    }
  ],
  "meshes": [
    {
      "primitives": [
        {
          "attributes": {
            "NORMAL": 1,
            "POSITION": 0,
            "TANGENT": 2,
            "TEXCOORD_0": 3
          },
          "indices": 4,
          "material": 0,
          "mode": 4
        }
      ]
    },
    {
      "primitives": [
        {
          "attributes": {
            "NORMAL": 6,
            "POSITION": 5,
            "TANGENT": 7
          },
          "indices": 8,
          "material": 1,
          "mode": 4
        }
      ]
    },
    {
      "primitives": [
        {
          "attributes": {
            "NORMAL": 10,
            "POSITION": 9,
            "TANGENT": 11
          },
          "indices": 12,
          "material": 1,
          "mode": 4
        }
      ]
    },
    {
      "primitives": [
        {
          "attributes": {
            "NORMAL": 14,
            "POSITION": 13,
            "TANGENT": 15
          },
          "indices": 16,
          "material": 1,
          "mode": 4
        }
      ]
    },
    {
      "primitives": [
        {
          "attributes": {
            "NORMAL": 18,
            "POSITION": 17,
            "TANGENT": 19
          },
          "indices": 20,
          "material": 1,
          "mode": 4
        }
      ]
    },
    {
      "primitives": [
        {
          "attributes": {
            "NORMAL": 22,
            "POSITION": 21,
            "TANGENT": 23
          },
          "indices": 24,
          "material": 1,
          "mode": 4
        }
      ]
    },
    {
      "primitives": [
        {
          "attributes": {
            "NORMAL": 26,
            "POSITION": 25,
            "TANGENT": 27
          },
          "indices": 28,
          "material": 1,
          "mode": 4
        }
      ]
    }
  ],
  "nodes": [
    {
      "children": [
        1
      ],
      "name": "RootNode (gltf orientation matrix)",
      "rotation": [
        -0.70710678118654746,
        -0,
        -0,
        0.70710678118654757
      ]
    },
    {
      "children": [
        2
      ],
      "name": "RootNode (model correction matrix)"
    },
    {
      "children": [
        3,
        4,
        5,
        6,
        7,
        8,
        9
      ],
      "name": "a98a02b95d4f401a9f2ffc0393ee565f.obj.cleaner"
    },
    {
      "mesh": 0,
      "name": ""
    },
    {
      "mesh": 1,
      "name": ""
    },
    {
      "mesh": 2,
      "name": ""
    },
    {
      "mesh": 3,
      "name": ""
    },
    {
      "mesh": 4,
      "name": ""
    },
    {
      "mesh": 5,
      "name": ""
    },
    {
      "mesh": 6,
      "name": ""
    }
  ],
  "samplers": [
    {
      "magFilter": 9729,
      "minFilter": 9987,
      "wrapS": 10497,
      "wrapT": 10497
    }
  ],
  "scene": 0,
  "scenes": [
    {
      "name": "OSG_Scene",
      "nodes": [
        0
      ]
    }
  ],
  "textures": [
    {
      "sampler": 0,
      "source": 0
    }
  ]
}

