{
  "accessors": [
    {
      "bufferView": 1,
      "componentType": 5126,
      "count": 15528,
      "max": [
        153310.484375,
        -5505.435546875,
        2461.870849609375
      ],
      "min": [
        152110.5,
        -5515.435546875,
        61.870849609375
      ],
      "type": "VEC3"
    },
    {
      "bufferView": 1,
      "byteOffset": 186336,
      "componentType": 5126,
      "count": 15528,
      "max": [
        1,
        1,
        1
      ],
      "min": [
        -1,
        -1,
        -1
      ],
      "type": "VEC3"
    },
    {
      "bufferView": 2,
      "componentType": 5126,
      "count": 15528,
      "max": [
        1,
        0,
        1,
        1
      ],
      "min": [
        -1,
        0,
        -1,
        1
      ],
      "type": "VEC4"
    },
    {
      "bufferView": 2,
      "byteOffset": 248448,
      "componentType": 5126,
      "count": 15528,
      "max": [
        1,
        1,
        1,
        1
      ],
      "min": [
        1,
        1,
        1,
        1
      ],
      "type": "VEC4"
    },
    {
      "bufferView": 0,
      "componentType": 5125,
      "count": 37812,
      "max": [
        15527
      ],
      "min": [
        0
      ],
      "type": "SCALAR"
    },
    {
      "bufferView": 1,
      "byteOffset": 372672,
      "componentType": 5126,
      "count": 48,
      "max": [
        153322.359375,
        -5505.435546875,
        2473.74169921875
      ],
      "min": [
        152098.625,
        -5515.435546875,
        50
      ],
      "type": "VEC3"
    },
    {
      "bufferView": 1,
      "byteOffset": 373248,
      "componentType": 5126,
      "count": 48,
      "max": [
        1,
        1,
        1
      ],
      "min": [
        -1,
        -1,
        -1
      ],
      "type": "VEC3"
    },
    {
      "bufferView": 2,
      "byteOffset": 496896,
      "componentType": 5126,
      "count": 48,
      "max": [
        1,
        0,
        1,
        1
      ],
      "min": [
        -1,
        0,
        -1,
        1
      ],
      "type": "VEC4"
    },
    {
      "bufferView": 2,
      "byteOffset": 497664,
      "componentType": 5126,
      "count": 48,
      "max": [
        1,
        1,
        1,
        1
      ],
      "min": [
        1,
        1,
        1,
        1
      ],
      "type": "VEC4"
    },
    {
      "bufferView": 0,
      "byteOffset": 151248,
      "componentType": 5125,
      "count": 96,
      "max": [
        47
      ],
      "min": [
        0
      ],
      "type": "SCALAR"
    },
    {
      "bufferView": 1,
      "byteOffset": 373824,
      "componentType": 5126,
      "count": 48,
      "max": [
        153372.359375,
        -5490.435546875,
        2523.74169921875
      ],
      "min": [
        152048.625,
        -5520.435546875,
        0
      ],
      "type": "VEC3"
    },
    {
      "bufferView": 1,
      "byteOffset": 374400,
      "componentType": 5126,
      "count": 48,
      "max": [
        1,
        1,
        1
      ],
      "min": [
        -1,
        -1,
        -1
      ],
      "type": "VEC3"
    },
    {
      "bufferView": 2,
      "byteOffset": 498432,
      "componentType": 5126,
      "count": 48,
      "max": [
        1,
        0,
        1,
        1
      ],
      "min": [
        -1,
        0,
        -1,
        1
      ],
      "type": "VEC4"
    },
    {
      "bufferView": 2,
      "byteOffset": 499200,
      "componentType": 5126,
      "count": 48,
      "max": [
        1,
        1,
        1,
        1
      ],
      "min": [
        1,
        1,
        1,
        1
      ],
      "type": "VEC4"
    },
    {
      "bufferView": 0,
      "byteOffset": 151632,
      "componentType": 5125,
      "count": 96,
      "max": [
        47
      ],
      "min": [
        0
      ],
      "type": "SCALAR"
    }
  ],
  "asset": {
    "extras": {
      "author": "Mahbobe (https://sketchfab.com/Mahbobe)",
      "license": "CC-BY-4.0 (http://creativecommons.org/licenses/by/4.0/)",
      "source": "https://sketchfab.com/models/a48499793613463a93c32b791f4dd29d",
      "title": "Partition Panel-1"
    },
    "generator": "Sketchfab-3.17.1",
    "version": "2.0"
  },
  "bufferViews": [
    {
      "buffer": 0,
      "byteLength": 152016,
      "byteOffset": 0,
      "name": "floatBufferViews",
      "target": 34963
    },
    {
      "buffer": 0,
      "byteLength": 374976,
      "byteOffset": 152016,
      "byteStride": 12,
      "name": "floatBufferViews",
      "target": 34962
    },
    {
      "buffer": 0,
      "byteLength": 499968,
      "byteOffset": 526992,
      "byteStride": 16,
      "name": "floatBufferViews",
      "target": 34962
    }
  ],
  "buffers": [
    {
      "byteLength": 1026960,
      "uri": "scene.bin"
    }
  ],
  "materials": [
    {
      "doubleSided": true,
      "emissiveFactor": [
        0,
        0,
        0
      ],
      "name": "Material_2",
      "pbrMetallicRoughness": {
        "baseColorFactor": [
          0.011764699999999999,
          0.0078431400000000002,
          0.0078431400000000002,
          1
        ],
        "metallicFactor": 0,
        "roughnessFactor": 0.59999999999999998
      }
    }
  ],
  "meshes": [
    {
      "primitives": [
        {
          "attributes": {
            "COLOR_0": 3,
            "NORMAL": 1,
            "POSITION": 0,
            "TANGENT": 2
          },
          "indices": 4,
          "material": 0,
          "mode": 4
        }
      ]
    },
    {
      "primitives": [
        {
          "attributes": {
            "COLOR_0": 8,
            "NORMAL": 6,
            "POSITION": 5,
            "TANGENT": 7
          },
          "indices": 9,
          "material": 0,
          "mode": 4
        }
      ]
    },
    {
      "primitives": [
        {
          "attributes": {
            "COLOR_0": 13,
            "NORMAL": 11,
            "POSITION": 10,
            "TANGENT": 12
          },
          "indices": 14,
          "material": 0,
          "mode": 4
        }
      ]
    }
  ],
  "nodes": [
    {
      "children": [
        1
      ],
      "name": "RootNode (gltf orientation matrix)",
      "rotation": [
        -0.70710678118654746,
        -0,
        -0,
        0.70710678118654757
      ]
    },
    {
      "children": [
        2
      ],
      "name": "RootNode (model correction matrix)"
    },
    {
      "children": [
        3
      ],
      "name": "a70d96e91a56466394ebc4e48c4da33c.3ds"
    },
    {
      "children": [
        4,
        7,
        10
      ],
      "matrix": [
        1,
        0,
        0,
        0,
        0,
        1,
        0,
        0,
        0,
        0,
        1,
        0,
        152710.5,
        -5505.435546875,
        1261.870849609375,
        1
      ],
      "name": "Group001"
    },
    {
      "children": [
        5
      ],
      "matrix": [
        1,
        0,
        0,
        0,
        0,
        -1.1920928955078125e-07,
        0.99999994039535522,
        0,
        0,
        -0.99999994039535522,
        -1.1920928955078125e-07,
        0,
        0,
        -5,
        0,
        1
      ],
      "name": "3dSolid"
    },
    {
      "children": [
        6
      ],
      "matrix": [
        1,
        0,
        0,
        0,
        0,
        -1.629206849429422e-07,
        -0.99999999999997335,
        0,
        0,
        0.99999999999997335,
        -1.629206849429422e-07,
        0,
        -152710.5,
        -1261.871747373275,
        -5510.43534128999,
        1
      ],
      "name": "3DSMeshMatrix"
    },
    {
      "mesh": 0,
      "name": ""
    },
    {
      "children": [
        8
      ],
      "matrix": [
        1,
        0,
        0,
        0,
        0,
        -1.1920928955078125e-07,
        0.99999994039535522,
        0,
        0,
        -0.99999994039535522,
        -1.1920928955078125e-07,
        0,
        0,
        -5,
        0,
        1
      ],
      "name": "3dSolid0"
    },
    {
      "children": [
        9
      ],
      "matrix": [
        1,
        0,
        0,
        0,
        0,
        -1.629206849429422e-07,
        -0.99999999999997335,
        0,
        0,
        0.99999999999997335,
        -1.629206849429422e-07,
        0,
        -152710.5,
        -1261.871747373275,
        -5510.43534128999,
        1
      ],
      "name": "3DSMeshMatrix"
    },
    {
      "mesh": 1,
      "name": ""
    },
    {
      "children": [
        11
      ],
      "matrix": [
        1,
        0,
        0,
        0,
        0,
        -1.1920928955078125e-07,
        0.99999994039535522,
        0,
        0,
        -0.99999994039535522,
        -1.1920928955078125e-07,
        0,
        0,
        0,
        0,
        1
      ],
      "name": "3dSolid1"
    },
    {
      "children": [
        12
      ],
      "matrix": [
        1,
        0,
        0,
        0,
        0,
        -1.629206849429422e-07,
        -0.99999999999997335,
        0,
        0,
        0.99999999999997335,
        -1.629206849429422e-07,
        0,
        -152710.5,
        -1261.8717465586715,
        -5505.43534128999,
        1
      ],
      "name": "3DSMeshMatrix"
    },
    {
      "mesh": 2,
      "name": ""
    }
  ],
  "scene": 0,
  "scenes": [
    {
      "name": "OSG_Scene",
      "nodes": [
        0
      ]
    }
  ]
}

