{
  "accessors": [
    {
      "bufferView": 1,
      "componentType": 5126,
      "count": 891,
      "max": [
        52.129970550537109,
        3.0124979019165039,
        37.72998046875
      ],
      "min": [
        -9.9999999747524271e-07,
        -0,
        1.9999999949504854e-06
      ],
      "type": "VEC3"
    },
    {
      "bufferView": 1,
      "byteOffset": 10692,
      "componentType": 5126,
      "count": 891,
      "max": [
        1,
        1,
        1
      ],
      "min": [
        -1,
        -1,
        -1
      ],
      "type": "VEC3"
    },
    {
      "bufferView": 2,
      "componentType": 5126,
      "count": 891,
      "max": [
        0,
        0,
        0,
        1
      ],
      "min": [
        0,
        0,
        0,
        1
      ],
      "type": "VEC4"
    },
    {
      "bufferView": 2,
      "byteOffset": 14256,
      "componentType": 5126,
      "count": 891,
      "max": [
        0.33725500106811523,
        0.33725500106811523,
        0.33725500106811523,
        1
      ],
      "min": [
        0.33725500106811523,
        0.33725500106811523,
        0.33725500106811523,
        1
      ],
      "type": "VEC4"
    },
    {
      "bufferView": 0,
      "componentType": 5125,
      "count": 4128,
      "max": [
        890
      ],
      "min": [
        0
      ],
      "type": "SCALAR"
    },
    {
      "bufferView": 1,
      "byteOffset": 21384,
      "componentType": 5126,
      "count": 65532,
      "max": [
        51.070808410644531,
        2.1885440349578857,
        36.326080322265625
      ],
      "min": [
        1.06135094165802,
        1.1815229654312134,
        30.417526245117188
      ],
      "type": "VEC3"
    },
    {
      "bufferView": 1,
      "byteOffset": 807768,
      "componentType": 5126,
      "count": 65532,
      "max": [
        1,
        1,
        1
      ],
      "min": [
        -1,
        -1,
        -0.035088665783405304
      ],
      "type": "VEC3"
    },
    {
      "bufferView": 2,
      "byteOffset": 28512,
      "componentType": 5126,
      "count": 65532,
      "max": [
        0,
        0,
        0,
        1
      ],
      "min": [
        0,
        0,
        0,
        1
      ],
      "type": "VEC4"
    },
    {
      "bufferView": 2,
      "byteOffset": 1077024,
      "componentType": 5126,
      "count": 65532,
      "max": [
        1,
        1,
        1,
        1
      ],
      "min": [
        0.023529000580310822,
        0.078431002795696259,
        0.078431002795696259,
        1
      ],
      "type": "VEC4"
    },
    {
      "bufferView": 0,
      "byteOffset": 16512,
      "componentType": 5125,
      "count": 190731,
      "max": [
        65531
      ],
      "min": [
        0
      ],
      "type": "SCALAR"
    },
    {
      "bufferView": 1,
      "byteOffset": 1594152,
      "componentType": 5126,
      "count": 65532,
      "max": [
        51.066799163818359,
        2.1870250701904297,
        33.382484436035156
      ],
      "min": [
        1.0628420114517212,
        1.1829739809036255,
        29.780378341674805
      ],
      "type": "VEC3"
    },
    {
      "bufferView": 1,
      "byteOffset": 2380536,
      "componentType": 5126,
      "count": 65532,
      "max": [
        1,
        1,
        3.9452334021916613e-05
      ],
      "min": [
        -1,
        -1,
        -4.2927324102493003e-05
      ],
      "type": "VEC3"
    },
    {
      "bufferView": 2,
      "byteOffset": 2125536,
      "componentType": 5126,
      "count": 65532,
      "max": [
        0,
        0,
        0,
        1
      ],
      "min": [
        0,
        0,
        0,
        1
      ],
      "type": "VEC4"
    },
    {
      "bufferView": 2,
      "byteOffset": 3174048,
      "componentType": 5126,
      "count": 65532,
      "max": [
        0.95294100046157837,
        0.992156982421875,
        0.9960780143737793,
        1
      ],
      "min": [
        0.043136999011039734,
        0.078431002795696259,
        0.078431002795696259,
        1
      ],
      "type": "VEC4"
    },
    {
      "bufferView": 0,
      "byteOffset": 779436,
      "componentType": 5125,
      "count": 192330,
      "max": [
        65531
      ],
      "min": [
        0
      ],
      "type": "SCALAR"
    },
    {
      "bufferView": 1,
      "byteOffset": 3166920,
      "componentType": 5126,
      "count": 65532,
      "max": [
        51.066799163818359,
        2.1870250701904297,
        29.882341384887695
      ],
      "min": [
        1.0628420114517212,
        1.1829739809036255,
        25.757495880126953
      ],
      "type": "VEC3"
    },
    {
      "bufferView": 1,
      "byteOffset": 3953304,
      "componentType": 5126,
      "count": 65532,
      "max": [
        1,
        1,
        3.5339307942194864e-05
      ],
      "min": [
        -1,
        -1,
        -3.8912981835892424e-05
      ],
      "type": "VEC3"
    },
    {
      "bufferView": 2,
      "byteOffset": 4222560,
      "componentType": 5126,
      "count": 65532,
      "max": [
        0,
        0,
        0,
        1
      ],
      "min": [
        0,
        0,
        0,
        1
      ],
      "type": "VEC4"
    },
    {
      "bufferView": 2,
      "byteOffset": 5271072,
      "componentType": 5126,
      "count": 65532,
      "max": [
        1,
        1,
        1,
        1
      ],
      "min": [
        0,
        0.078431002795696259,
        0.078431002795696259,
        1
      ],
      "type": "VEC4"
    },
    {
      "bufferView": 0,
      "byteOffset": 1548756,
      "componentType": 5125,
      "count": 194865,
      "max": [
        65531
      ],
      "min": [
        0
      ],
      "type": "SCALAR"
    },
    {
      "bufferView": 1,
      "byteOffset": 4739688,
      "componentType": 5126,
      "count": 65533,
      "max": [
        51.066799163818359,
        2.1870250701904297,
        26.288738250732422
      ],
      "min": [
        1.0628420114517212,
        1.1829739809036255,
        22.598464965820312
      ],
      "type": "VEC3"
    },
    {
      "bufferView": 1,
      "byteOffset": 5526084,
      "componentType": 5126,
      "count": 65533,
      "max": [
        1,
        1,
        3.4399086871417239e-05
      ],
      "min": [
        -1,
        -1,
        -3.915123306796886e-05
      ],
      "type": "VEC3"
    },
    {
      "bufferView": 2,
      "byteOffset": 6319584,
      "componentType": 5126,
      "count": 65533,
      "max": [
        0,
        0,
        0,
        1
      ],
      "min": [
        0,
        0,
        0,
        1
      ],
      "type": "VEC4"
    },
    {
      "bufferView": 2,
      "byteOffset": 7368112,
      "componentType": 5126,
      "count": 65533,
      "max": [
        1,
        1,
        1,
        1
      ],
      "min": [
        0.023529000580310822,
        0.078431002795696259,
        0.078431002795696259,
        1
      ],
      "type": "VEC4"
    },
    {
      "bufferView": 0,
      "byteOffset": 2328216,
      "componentType": 5125,
      "count": 194985,
      "max": [
        65532
      ],
      "min": [
        0
      ],
      "type": "SCALAR"
    },
    {
      "bufferView": 1,
      "byteOffset": 6312480,
      "componentType": 5126,
      "count": 65532,
      "max": [
        51.066799163818359,
        2.1870250701904297,
        22.696693420410156
      ],
      "min": [
        1.0628420114517212,
        1.1829739809036255,
        18.980020523071289
      ],
      "type": "VEC3"
    },
    {
      "bufferView": 1,
      "byteOffset": 7098864,
      "componentType": 5126,
      "count": 65532,
      "max": [
        1,
        1,
        3.5345394280739129e-05
      ],
      "min": [
        -1,
        -1,
        -3.945293792639859e-05
      ],
      "type": "VEC3"
    },
    {
      "bufferView": 2,
      "byteOffset": 8416640,
      "componentType": 5126,
      "count": 65532,
      "max": [
        0,
        0,
        0,
        1
      ],
      "min": [
        0,
        0,
        0,
        1
      ],
      "type": "VEC4"
    },
    {
      "bufferView": 2,
      "byteOffset": 9465152,
      "componentType": 5126,
      "count": 65532,
      "max": [
        0.94509798288345337,
        0.97254902124404907,
        0.96078401803970337,
        1
      ],
      "min": [
        0.12548999488353729,
        0.035294000059366226,
        0.023529000580310822,
        1
      ],
      "type": "VEC4"
    },
    {
      "bufferView": 0,
      "byteOffset": 3108156,
      "componentType": 5125,
      "count": 193494,
      "max": [
        65531
      ],
      "min": [
        0
      ],
      "type": "SCALAR"
    },
    {
      "bufferView": 1,
      "byteOffset": 7885248,
      "componentType": 5126,
      "count": 65532,
      "max": [
        51.066799163818359,
        2.2074511051177979,
        19.098812103271484
      ],
      "min": [
        1.0628420114517212,
        1.1829739809036255,
        15.473118782043457
      ],
      "type": "VEC3"
    },
    {
      "bufferView": 1,
      "byteOffset": 8671632,
      "componentType": 5126,
      "count": 65532,
      "max": [
        1,
        1,
        0.11136816442012787
      ],
      "min": [
        -1,
        -1,
        -0.0037129158154129982
      ],
      "type": "VEC3"
    },
    {
      "bufferView": 2,
      "byteOffset": 10513664,
      "componentType": 5126,
      "count": 65532,
      "max": [
        0,
        0,
        0,
        1
      ],
      "min": [
        0,
        0,
        0,
        1
      ],
      "type": "VEC4"
    },
    {
      "bufferView": 2,
      "byteOffset": 11562176,
      "componentType": 5126,
      "count": 65532,
      "max": [
        0.98431402444839478,
        1,
        1,
        1
      ],
      "min": [
        0,
        0,
        0,
        1
      ],
      "type": "VEC4"
    },
    {
      "bufferView": 0,
      "byteOffset": 3882132,
      "componentType": 5125,
      "count": 191685,
      "max": [
        65531
      ],
      "min": [
        0
      ],
      "type": "SCALAR"
    },
    {
      "bufferView": 1,
      "byteOffset": 9458016,
      "componentType": 5126,
      "count": 65532,
      "max": [
        51.066799163818359,
        3.1927928924560547,
        15.598814964294434
      ],
      "min": [
        1.0628420114517212,
        1.1829739809036255,
        12.171243667602539
      ],
      "type": "VEC3"
    },
    {
      "bufferView": 1,
      "byteOffset": 10244400,
      "componentType": 5126,
      "count": 65532,
      "max": [
        1,
        1,
        0.7957187294960022
      ],
      "min": [
        -1,
        -1,
        -0.85241585969924927
      ],
      "type": "VEC3"
    },
    {
      "bufferView": 2,
      "byteOffset": 12610688,
      "componentType": 5126,
      "count": 65532,
      "max": [
        0,
        0,
        0,
        1
      ],
      "min": [
        0,
        0,
        0,
        1
      ],
      "type": "VEC4"
    },
    {
      "bufferView": 2,
      "byteOffset": 13659200,
      "componentType": 5126,
      "count": 65532,
      "max": [
        0.9960780143737793,
        1,
        1,
        1
      ],
      "min": [
        0.011765000410377979,
        0,
        0,
        1
      ],
      "type": "VEC4"
    },
    {
      "bufferView": 0,
      "byteOffset": 4648872,
      "componentType": 5125,
      "count": 180009,
      "max": [
        65531
      ],
      "min": [
        0
      ],
      "type": "SCALAR"
    },
    {
      "bufferView": 1,
      "byteOffset": 11030784,
      "componentType": 5126,
      "count": 65532,
      "max": [
        51.066799163818359,
        3.2014470100402832,
        12.296095848083496
      ],
      "min": [
        1.0628420114517212,
        1.1829739809036255,
        8.7915058135986328
      ],
      "type": "VEC3"
    },
    {
      "bufferView": 1,
      "byteOffset": 11817168,
      "componentType": 5126,
      "count": 65532,
      "max": [
        1,
        1,
        0.55475950241088867
      ],
      "min": [
        -1,
        -1,
        -0.99992406368255615
      ],
      "type": "VEC3"
    },
    {
      "bufferView": 2,
      "byteOffset": 14707712,
      "componentType": 5126,
      "count": 65532,
      "max": [
        0,
        0,
        0,
        1
      ],
      "min": [
        0,
        0,
        0,
        1
      ],
      "type": "VEC4"
    },
    {
      "bufferView": 2,
      "byteOffset": 15756224,
      "componentType": 5126,
      "count": 65532,
      "max": [
        1,
        1,
        0.9960780143737793,
        1
      ],
      "min": [
        0.023529000580310822,
        0,
        0,
        1
      ],
      "type": "VEC4"
    },
    {
      "bufferView": 0,
      "byteOffset": 5368908,
      "componentType": 5125,
      "count": 181752,
      "max": [
        65531
      ],
      "min": [
        0
      ],
      "type": "SCALAR"
    },
    {
      "bufferView": 1,
      "byteOffset": 12603552,
      "componentType": 5126,
      "count": 65532,
      "max": [
        51.066799163818359,
        2.379910945892334,
        9.0359811782836914
      ],
      "min": [
        1.0628420114517212,
        1.1829739809036255,
        5.3186211585998535
      ],
      "type": "VEC3"
    },
    {
      "bufferView": 1,
      "byteOffset": 13389936,
      "componentType": 5126,
      "count": 65532,
      "max": [
        1,
        1,
        0.052018575370311737
      ],
      "min": [
        -1,
        -1,
        -0.76921641826629639
      ],
      "type": "VEC3"
    },
    {
      "bufferView": 2,
      "byteOffset": 16804736,
      "componentType": 5126,
      "count": 65532,
      "max": [
        0,
        0,
        0,
        1
      ],
      "min": [
        0,
        0,
        0,
        1
      ],
      "type": "VEC4"
    },
    {
      "bufferView": 2,
      "byteOffset": 17853248,
      "componentType": 5126,
      "count": 65532,
      "max": [
        1,
        1,
        1,
        1
      ],
      "min": [
        0,
        0.070588000118732452,
        0.078431002795696259,
        1
      ],
      "type": "VEC4"
    },
    {
      "bufferView": 0,
      "byteOffset": 6095916,
      "componentType": 5125,
      "count": 192369,
      "max": [
        65531
      ],
      "min": [
        0
      ],
      "type": "SCALAR"
    },
    {
      "bufferView": 1,
      "byteOffset": 14176320,
      "componentType": 5126,
      "count": 65532,
      "max": [
        51.066974639892578,
        2.1955521106719971,
        5.4205770492553711
      ],
      "min": [
        1.0628010034561157,
        1.1829739809036255,
        1.810731053352356
      ],
      "type": "VEC3"
    },
    {
      "bufferView": 1,
      "byteOffset": 14962704,
      "componentType": 5126,
      "count": 65532,
      "max": [
        1,
        1,
        0.032644610852003098
      ],
      "min": [
        -1,
        -1,
        -0.032802753150463104
      ],
      "type": "VEC3"
    },
    {
      "bufferView": 2,
      "byteOffset": 18901760,
      "componentType": 5126,
      "count": 65532,
      "max": [
        0,
        0,
        0,
        1
      ],
      "min": [
        0,
        0,
        0,
        1
      ],
      "type": "VEC4"
    },
    {
      "bufferView": 2,
      "byteOffset": 19950272,
      "componentType": 5126,
      "count": 65532,
      "max": [
        0.95294100046157837,
        0.9960780143737793,
        0.97647100687026978,
        1
      ],
      "min": [
        0.0039220000617206097,
        0.078431002795696259,
        0.078431002795696259,
        1
      ],
      "type": "VEC4"
    },
    {
      "bufferView": 0,
      "byteOffset": 6865392,
      "componentType": 5125,
      "count": 191496,
      "max": [
        65531
      ],
      "min": [
        0
      ],
      "type": "SCALAR"
    },
    {
      "bufferView": 1,
      "byteOffset": 15749088,
      "componentType": 5126,
      "count": 22758,
      "max": [
        51.070808410644531,
        2.1884419918060303,
        1.9318289756774902
      ],
      "min": [
        1.0613570213317871,
        1.181522011756897,
        1.3138530254364014
      ],
      "type": "VEC3"
    },
    {
      "bufferView": 1,
      "byteOffset": 16022184,
      "componentType": 5126,
      "count": 22758,
      "max": [
        1,
        1,
        0.03578408807516098
      ],
      "min": [
        -1,
        -1,
        -1
      ],
      "type": "VEC3"
    },
    {
      "bufferView": 2,
      "byteOffset": 20998784,
      "componentType": 5126,
      "count": 22758,
      "max": [
        0,
        0,
        0,
        1
      ],
      "min": [
        0,
        0,
        0,
        1
      ],
      "type": "VEC4"
    },
    {
      "bufferView": 2,
      "byteOffset": 21362912,
      "componentType": 5126,
      "count": 22758,
      "max": [
        0.9960780143737793,
        0.9960780143737793,
        0.9960780143737793,
        1
      ],
      "min": [
        0,
        0.078431002795696259,
        0.078431002795696259,
        1
      ],
      "type": "VEC4"
    },
    {
      "bufferView": 0,
      "byteOffset": 7631376,
      "componentType": 5125,
      "count": 58704,
      "max": [
        22757
      ],
      "min": [
        0
      ],
      "type": "SCALAR"
    }
  ],
  "asset": {
    "extras": {
      "author": "Guido Salimbeni (https://sketchfab.com/3dsmithery)",
      "license": "CC-BY-4.0 (http://creativecommons.org/licenses/by/4.0/)",
      "source": "https://sketchfab.com/models/2344778b66bd499b9acf0c3708e87cee",
      "title": "Red Cardinal Flying Painting"
    },
    "generator": "Sketchfab-3.18.2",
    "version": "2.0"
  },
  "bufferViews": [
    {
      "buffer": 0,
      "byteLength": 7866192,
      "byteOffset": 0,
      "name": "floatBufferViews",
      "target": 34963
    },
    {
      "buffer": 0,
      "byteLength": 16295280,
      "byteOffset": 7866192,
      "byteStride": 12,
      "name": "floatBufferViews",
      "target": 34962
    },
    {
      "buffer": 0,
      "byteLength": 21727040,
      "byteOffset": 24161472,
      "byteStride": 16,
      "name": "floatBufferViews",
      "target": 34962
    }
  ],
  "buffers": [
    {
      "byteLength": 45888512,
      "uri": "scene.bin"
    }
  ],
  "materials": [
    {
      "doubleSided": true,
      "emissiveFactor": [
        0,
        0,
        0
      ],
      "name": "Scene_-_Root",
      "pbrMetallicRoughness": {
        "baseColorFactor": [
          0.5,
          0.5,
          0.5,
          1
        ],
        "metallicFactor": 0,
        "roughnessFactor": 0.59999999999999998
      }
    }
  ],
  "meshes": [
    {
      "primitives": [
        {
          "attributes": {
            "COLOR_0": 3,
            "NORMAL": 1,
            "POSITION": 0,
            "TANGENT": 2
          },
          "indices": 4,
          "material": 0,
          "mode": 4
        }
      ]
    },
    {
      "primitives": [
        {
          "attributes": {
            "COLOR_0": 8,
            "NORMAL": 6,
            "POSITION": 5,
            "TANGENT": 7
          },
          "indices": 9,
          "material": 0,
          "mode": 4
        }
      ]
    },
    {
      "primitives": [
        {
          "attributes": {
            "COLOR_0": 13,
            "NORMAL": 11,
            "POSITION": 10,
            "TANGENT": 12
          },
          "indices": 14,
          "material": 0,
          "mode": 4
        }
      ]
    },
    {
      "primitives": [
        {
          "attributes": {
            "COLOR_0": 18,
            "NORMAL": 16,
            "POSITION": 15,
            "TANGENT": 17
          },
          "indices": 19,
          "material": 0,
          "mode": 4
        }
      ]
    },
    {
      "primitives": [
        {
          "attributes": {
            "COLOR_0": 23,
            "NORMAL": 21,
            "POSITION": 20,
            "TANGENT": 22
          },
          "indices": 24,
          "material": 0,
          "mode": 4
        }
      ]
    },
    {
      "primitives": [
        {
          "attributes": {
            "COLOR_0": 28,
            "NORMAL": 26,
            "POSITION": 25,
            "TANGENT": 27
          },
          "indices": 29,
          "material": 0,
          "mode": 4
        }
      ]
    },
    {
      "primitives": [
        {
          "attributes": {
            "COLOR_0": 33,
            "NORMAL": 31,
            "POSITION": 30,
            "TANGENT": 32
          },
          "indices": 34,
          "material": 0,
          "mode": 4
        }
      ]
    },
    {
      "primitives": [
        {
          "attributes": {
            "COLOR_0": 38,
            "NORMAL": 36,
            "POSITION": 35,
            "TANGENT": 37
          },
          "indices": 39,
          "material": 0,
          "mode": 4
        }
      ]
    },
    {
      "primitives": [
        {
          "attributes": {
            "COLOR_0": 43,
            "NORMAL": 41,
            "POSITION": 40,
            "TANGENT": 42
          },
          "indices": 44,
          "material": 0,
          "mode": 4
        }
      ]
    },
    {
      "primitives": [
        {
          "attributes": {
            "COLOR_0": 48,
            "NORMAL": 46,
            "POSITION": 45,
            "TANGENT": 47
          },
          "indices": 49,
          "material": 0,
          "mode": 4
        }
      ]
    },
    {
      "primitives": [
        {
          "attributes": {
            "COLOR_0": 53,
            "NORMAL": 51,
            "POSITION": 50,
            "TANGENT": 52
          },
          "indices": 54,
          "material": 0,
          "mode": 4
        }
      ]
    },
    {
      "primitives": [
        {
          "attributes": {
            "COLOR_0": 58,
            "NORMAL": 56,
            "POSITION": 55,
            "TANGENT": 57
          },
          "indices": 59,
          "material": 0,
          "mode": 4
        }
      ]
    }
  ],
  "nodes": [
    {
      "children": [
        1
      ],
      "name": "RootNode (gltf orientation matrix)",
      "rotation": [
        -0.70710678118654746,
        -0,
        -0,
        0.70710678118654757
      ]
    },
    {
      "children": [
        2
      ],
      "matrix": [
        -0.0050369319505989552,
        0,
        -0.99998730421066284,
        0,
        0.99998730421066284,
        0,
        -0.0050369319505989552,
        0,
        0,
        -1,
        0,
        0,
        42.872371673583984,
        -14.483725547790527,
        28.173242568969727,
        1
      ],
      "name": "RootNode (model correction matrix)"
    },
    {
      "children": [
        3,
        4,
        5,
        6,
        7,
        8,
        9,
        10,
        11,
        12,
        13,
        14
      ],
      "matrix": [
        1,
        0,
        0,
        0,
        0,
        0,
        1,
        0,
        0,
        -1,
        0,
        0,
        0,
        0,
        0,
        1
      ],
      "name": "e87d1d8bfa0046019fb020d20b3251c9.wrl.cleaner"
    },
    {
      "mesh": 0,
      "name": ""
    },
    {
      "mesh": 1,
      "name": ""
    },
    {
      "mesh": 2,
      "name": ""
    },
    {
      "mesh": 3,
      "name": ""
    },
    {
      "mesh": 4,
      "name": ""
    },
    {
      "mesh": 5,
      "name": ""
    },
    {
      "mesh": 6,
      "name": ""
    },
    {
      "mesh": 7,
      "name": ""
    },
    {
      "mesh": 8,
      "name": ""
    },
    {
      "mesh": 9,
      "name": ""
    },
    {
      "mesh": 10,
      "name": ""
    },
    {
      "mesh": 11,
      "name": ""
    }
  ],
  "scene": 0,
  "scenes": [
    {
      "name": "OSG_Scene",
      "nodes": [
        0
      ]
    }
  ]
}

