{
  "accessors": [
    {
      "bufferView": 2,
      "componentType": 5126,
      "count": 51838,
      "max": [
        0.19059500098228455,
        1.3597630262374878,
        1.158937931060791
      ],
      "min": [
        0,
        0,
        0
      ],
      "type": "VEC3"
    },
    {
      "bufferView": 2,
      "byteOffset": 622056,
      "componentType": 5126,
      "count": 51838,
      "max": [
        0.99999833106994629,
        0.99699634313583374,
        0.99922442436218262
      ],
      "min": [
        -0.99937337636947632,
        -0.9999774694442749,
        -0.99767637252807617
      ],
      "type": "VEC3"
    },
    {
      "bufferView": 3,
      "componentType": 5126,
      "count": 51838,
      "max": [
        0.99983549118041992,
        0.99987804889678955,
        0.99857223033905029,
        1
      ],
      "min": [
        -0.99796426296234131,
        -0.99987310171127319,
        -0.99986505508422852,
        1
      ],
      "type": "VEC4"
    },
    {
      "bufferView": 1,
      "componentType": 5126,
      "count": 51838,
      "max": [
        0.99106299877166748,
        0.995045006275177
      ],
      "min": [
        0.0038891399744898081,
        0.0080358898267149925
      ],
      "type": "VEC2"
    },
    {
      "bufferView": 0,
      "componentType": 5125,
      "count": 299973,
      "max": [
        51837
      ],
      "min": [
        0
      ],
      "type": "SCALAR"
    }
  ],
  "asset": {
    "extras": {
      "author": "3Digify (https://sketchfab.com/3digify)",
      "license": "CC-BY-NC-ND-4.0 (http://creativecommons.org/licenses/by-nc-nd/4.0/)",
      "source": "https://sketchfab.com/models/a7ca69a302ee4b46a2f289b7905b8575",
      "title": "Scanned Oil Painting"
    },
    "generator": "Sketchfab-3.19.1",
    "version": "2.0"
  },
  "bufferViews": [
    {
      "buffer": 0,
      "byteLength": 1199892,
      "byteOffset": 0,
      "name": "floatBufferViews",
      "target": 34963
    },
    {
      "buffer": 0,
      "byteLength": 414704,
      "byteOffset": 1199892,
      "byteStride": 8,
      "name": "floatBufferViews",
      "target": 34962
    },
    {
      "buffer": 0,
      "byteLength": 1244112,
      "byteOffset": 1614596,
      "byteStride": 12,
      "name": "floatBufferViews",
      "target": 34962
    },
    {
      "buffer": 0,
      "byteLength": 829408,
      "byteOffset": 2858708,
      "byteStride": 16,
      "name": "floatBufferViews",
      "target": 34962
    }
  ],
  "buffers": [
    {
      "byteLength": 3688116,
      "uri": "scene.bin"
    }
  ],
  "images": [
    {
      "uri": "textures/Textured_normal.png"
    },
    {
      "uri": "textures/Textured_baseColor.jpeg"
    }
  ],
  "materials": [
    {
      "doubleSided": true,
      "emissiveFactor": [
        0,
        0,
        0
      ],
      "name": "Textured",
      "normalTexture": {
        "index": 0,
        "scale": 1,
        "texCoord": 0
      },
      "pbrMetallicRoughness": {
        "baseColorFactor": [
          1,
          1,
          1,
          1
        ],
        "baseColorTexture": {
          "index": 1,
          "texCoord": 0
        },
        "metallicFactor": 0,
        "roughnessFactor": 0.10999999999999999
      }
    }
  ],
  "meshes": [
    {
      "primitives": [
        {
          "attributes": {
            "NORMAL": 1,
            "POSITION": 0,
            "TANGENT": 2,
            "TEXCOORD_0": 3
          },
          "indices": 4,
          "material": 0,
          "mode": 4
        }
      ]
    }
  ],
  "nodes": [
    {
      "children": [
        1
      ],
      "name": "RootNode (gltf orientation matrix)",
      "rotation": [
        -0.70710678118654746,
        -0,
        -0,
        0.70710678118654757
      ]
    },
    {
      "children": [
        2
      ],
      "matrix": [
        0.055517524480819702,
        -0.087736345827579498,
        0.99459546804428101,
        0,
        0.17343452572822571,
        0.98183619976043701,
        0.076929837465286255,
        0,
        -0.98327934741973877,
        0.16822624206542969,
        0.069725625216960907,
        0,
        0.01165083609521389,
        -0.0052270921878516674,
        0.035512592643499374,
        1
      ],
      "name": "RootNode (model correction matrix)"
    },
    {
      "children": [
        3
      ],
      "matrix": [
        1,
        0,
        0,
        0,
        0,
        1,
        0,
        0,
        0,
        0,
        1,
        0,
        -0.1083109974861145,
        -0.68081802129745483,
        -0.5552859902381897,
        1
      ],
      "name": "Mesh.obj.cleaner.gles"
    },
    {
      "mesh": 0,
      "name": ""
    }
  ],
  "samplers": [
    {
      "magFilter": 9729,
      "minFilter": 9987,
      "wrapS": 10497,
      "wrapT": 10497
    }
  ],
  "scene": 0,
  "scenes": [
    {
      "name": "OSG_Scene",
      "nodes": [
        0
      ]
    }
  ],
  "textures": [
    {
      "sampler": 0,
      "source": 0
    },
    {
      "sampler": 0,
      "source": 1
    }
  ]
}

