{
  "accessors": [
    {
      "bufferView": 2,
      "componentType": 5126,
      "count": 60778,
      "max": [
        1102.79345703125,
        785.2518310546875,
        1004.0618896484375
      ],
      "min": [
        -1172.88134765625,
        -1488.3358154296875,
        3.26739501953125
      ],
      "type": "VEC3"
    },
    {
      "bufferView": 2,
      "byteOffset": 729336,
      "componentType": 5126,
      "count": 60778,
      "max": [
        0.99997961521148682,
        0.99998635053634644,
        1
      ],
      "min": [
        -0.99997961521148682,
        -0.99998635053634644,
        -1
      ],
      "type": "VEC3"
    },
    {
      "bufferView": 3,
      "componentType": 5126,
      "count": 60778,
      "max": [
        0.99999690055847168,
        0.99999922513961792,
        1,
        1
      ],
      "min": [
        -1,
        -0.99998104572296143,
        -0.99793422222137451,
        1
      ],
      "type": "VEC4"
    },
    {
      "bufferView": 1,
      "componentType": 5126,
      "count": 60778,
      "max": [
        0.99500000476837158,
        0.99493616819381714
      ],
      "min": [
        0.004999999888241291,
        0.004999999888241291
      ],
      "type": "VEC2"
    },
    {
      "bufferView": 0,
      "componentType": 5125,
      "count": 293868,
      "max": [
        60777
      ],
      "min": [
        0
      ],
      "type": "SCALAR"
    }
  ],
  "asset": {
    "extras": {
      "author": "sinapersia (https://sketchfab.com/sinapersia)",
      "license": "CC-BY-4.0 (http://creativecommons.org/licenses/by/4.0/)",
      "source": "https://sketchfab.com/models/b20d6299f00945e4ab26f3b29ec8a181",
      "title": "Reception Desk proposal"
    },
    "generator": "Sketchfab-3.18.5",
    "version": "2.0"
  },
  "bufferViews": [
    {
      "buffer": 0,
      "byteLength": 1175472,
      "byteOffset": 0,
      "name": "floatBufferViews",
      "target": 34963
    },
    {
      "buffer": 0,
      "byteLength": 486224,
      "byteOffset": 1175472,
      "byteStride": 8,
      "name": "floatBufferViews",
      "target": 34962
    },
    {
      "buffer": 0,
      "byteLength": 1458672,
      "byteOffset": 1661696,
      "byteStride": 12,
      "name": "floatBufferViews",
      "target": 34962
    },
    {
      "buffer": 0,
      "byteLength": 972448,
      "byteOffset": 3120368,
      "byteStride": 16,
      "name": "floatBufferViews",
      "target": 34962
    }
  ],
  "buffers": [
    {
      "byteLength": 4092816,
      "uri": "scene.bin"
    }
  ],
  "images": [
    {
      "uri": "textures/Object029_mtl_baseColor.jpeg"
    }
  ],
  "materials": [
    {
      "doubleSided": true,
      "emissiveFactor": [
        0,
        0,
        0
      ],
      "name": "Object029_mtl",
      "pbrMetallicRoughness": {
        "baseColorFactor": [
          1,
          1,
          1,
          1
        ],
        "baseColorTexture": {
          "index": 0,
          "texCoord": 0
        },
        "metallicFactor": 0,
        "roughnessFactor": 0.38243140239999995
      }
    }
  ],
  "meshes": [
    {
      "name": "Object029_Object029_mtl_0",
      "primitives": [
        {
          "attributes": {
            "NORMAL": 1,
            "POSITION": 0,
            "TANGENT": 2,
            "TEXCOORD_0": 3
          },
          "indices": 4,
          "material": 0,
          "mode": 4
        }
      ]
    }
  ],
  "nodes": [
    {
      "children": [
        1
      ],
      "name": "RootNode (gltf orientation matrix)",
      "rotation": [
        -0.70710678118654746,
        -0,
        -0,
        0.70710678118654757
      ]
    },
    {
      "children": [
        2
      ],
      "name": "RootNode (model correction matrix)"
    },
    {
      "children": [
        3
      ],
      "matrix": [
        1,
        0,
        0,
        0,
        0,
        0,
        1,
        0,
        0,
        -1,
        0,
        0,
        0,
        0,
        0,
        1
      ],
      "name": "bancone.fbx"
    },
    {
      "children": [
        4
      ],
      "name": "RootNode"
    },
    {
      "children": [
        5
      ],
      "matrix": [
        1,
        0,
        0,
        0,
        0,
        2.2204460492503131e-16,
        -1,
        0,
        0,
        1,
        2.2204460492503131e-16,
        0,
        -35.0439453125,
        3.26739501953125,
        351.5419921875,
        1
      ],
      "name": "Object029"
    },
    {
      "children": [
        6
      ],
      "matrix": [
        1,
        0,
        -0,
        0,
        0,
        1,
        0,
        0,
        0,
        0,
        1,
        0,
        35.0439453125,
        351.5419921875,
        -3.26739501953125,
        1
      ],
      "name": ""
    },
    {
      "mesh": 0,
      "name": "Object029_Object029_mtl_0"
    }
  ],
  "samplers": [
    {
      "magFilter": 9729,
      "minFilter": 9987,
      "wrapS": 10497,
      "wrapT": 10497
    }
  ],
  "scene": 0,
  "scenes": [
    {
      "name": "OSG_Scene",
      "nodes": [
        0
      ]
    }
  ],
  "textures": [
    {
      "sampler": 0,
      "source": 0
    }
  ]
}

