{
  "accessors": [
    {
      "bufferView": 2,
      "componentType": 5126,
      "count": 65533,
      "max": [
        0.59772801399230957,
        0.99865901470184326,
        0.70452398061752319
      ],
      "min": [
        -0.59764397144317627,
        -1.0418800115585327,
        -0.7198290228843689
      ],
      "type": "VEC3"
    },
    {
      "bufferView": 2,
      "byteOffset": 786396,
      "componentType": 5126,
      "count": 65533,
      "max": [
        0.99999105930328369,
        0.99997997283935547,
        0.99991542100906372
      ],
      "min": [
        -0.99997270107269287,
        -0.99968147277832031,
        -0.999988853931427
      ],
      "type": "VEC3"
    },
    {
      "bufferView": 3,
      "componentType": 5126,
      "count": 65533,
      "max": [
        0,
        0,
        0,
        1
      ],
      "min": [
        0,
        0,
        0,
        1
      ],
      "type": "VEC4"
    },
    {
      "bufferView": 3,
      "byteOffset": 1048528,
      "componentType": 5126,
      "count": 65533,
      "max": [
        1,
        1,
        1,
        1
      ],
      "min": [
        0,
        0,
        0,
        1
      ],
      "type": "VEC4"
    },
    {
      "bufferView": 1,
      "componentType": 5126,
      "count": 65533,
      "max": [
        0,
        0
      ],
      "min": [
        0,
        0
      ],
      "type": "VEC2"
    },
    {
      "bufferView": 0,
      "componentType": 5125,
      "count": 65544,
      "max": [
        65532
      ],
      "min": [
        0
      ],
      "type": "SCALAR"
    },
    {
      "bufferView": 2,
      "byteOffset": 1572792,
      "componentType": 5126,
      "count": 65532,
      "max": [
        0.59813898801803589,
        0.99893498420715332,
        0.70452398061752319
      ],
      "min": [
        -0.59806197881698608,
        -1.0425399541854858,
        -0.71979302167892456
      ],
      "type": "VEC3"
    },
    {
      "bufferView": 2,
      "byteOffset": 2359176,
      "componentType": 5126,
      "count": 65532,
      "max": [
        0.99993020296096802,
        0.99998313188552856,
        0.99992328882217407
      ],
      "min": [
        -0.99995845556259155,
        -0.9998166561126709,
        -0.99985724687576294
      ],
      "type": "VEC3"
    },
    {
      "bufferView": 3,
      "byteOffset": 2097056,
      "componentType": 5126,
      "count": 65532,
      "max": [
        0,
        0,
        0,
        1
      ],
      "min": [
        0,
        0,
        0,
        1
      ],
      "type": "VEC4"
    },
    {
      "bufferView": 3,
      "byteOffset": 3145568,
      "componentType": 5126,
      "count": 65532,
      "max": [
        1,
        1,
        1,
        1
      ],
      "min": [
        0,
        0,
        0,
        1
      ],
      "type": "VEC4"
    },
    {
      "bufferView": 1,
      "byteOffset": 524264,
      "componentType": 5126,
      "count": 65532,
      "max": [
        0,
        0
      ],
      "min": [
        0,
        0
      ],
      "type": "VEC2"
    },
    {
      "bufferView": 0,
      "byteOffset": 262176,
      "componentType": 5125,
      "count": 65538,
      "max": [
        65531
      ],
      "min": [
        0
      ],
      "type": "SCALAR"
    },
    {
      "bufferView": 2,
      "byteOffset": 3145560,
      "componentType": 5126,
      "count": 65533,
      "max": [
        0.59752202033996582,
        0.99862700700759888,
        0.70452398061752319
      ],
      "min": [
        -0.59761297702789307,
        -1.0425399541854858,
        -0.71990001201629639
      ],
      "type": "VEC3"
    },
    {
      "bufferView": 2,
      "byteOffset": 3931956,
      "componentType": 5126,
      "count": 65533,
      "max": [
        0.9998849630355835,
        0.99999058246612549,
        0.99994075298309326
      ],
      "min": [
        -0.99999964237213135,
        -0.999908447265625,
        -0.99997222423553467
      ],
      "type": "VEC3"
    },
    {
      "bufferView": 3,
      "byteOffset": 4194080,
      "componentType": 5126,
      "count": 65533,
      "max": [
        0,
        0,
        0,
        1
      ],
      "min": [
        0,
        0,
        0,
        1
      ],
      "type": "VEC4"
    },
    {
      "bufferView": 3,
      "byteOffset": 5242608,
      "componentType": 5126,
      "count": 65533,
      "max": [
        1,
        1,
        1,
        1
      ],
      "min": [
        0,
        0,
        0,
        1
      ],
      "type": "VEC4"
    },
    {
      "bufferView": 1,
      "byteOffset": 1048520,
      "componentType": 5126,
      "count": 65533,
      "max": [
        0,
        0
      ],
      "min": [
        0,
        0
      ],
      "type": "VEC2"
    },
    {
      "bufferView": 0,
      "byteOffset": 524328,
      "componentType": 5125,
      "count": 65538,
      "max": [
        65532
      ],
      "min": [
        0
      ],
      "type": "SCALAR"
    },
    {
      "bufferView": 2,
      "byteOffset": 4718352,
      "componentType": 5126,
      "count": 65534,
      "max": [
        0.59813898801803589,
        0.99893498420715332,
        0.70452398061752319
      ],
      "min": [
        -0.59674102067947388,
        -1.0412839651107788,
        -0.71919000148773193
      ],
      "type": "VEC3"
    },
    {
      "bufferView": 2,
      "byteOffset": 5504760,
      "componentType": 5126,
      "count": 65534,
      "max": [
        0.99994540214538574,
        0.99998241662979126,
        0.99999552965164185
      ],
      "min": [
        -0.99997514486312866,
        -0.99998301267623901,
        -0.99999368190765381
      ],
      "type": "VEC3"
    },
    {
      "bufferView": 3,
      "byteOffset": 6291136,
      "componentType": 5126,
      "count": 65534,
      "max": [
        0,
        0,
        0,
        1
      ],
      "min": [
        0,
        0,
        0,
        1
      ],
      "type": "VEC4"
    },
    {
      "bufferView": 3,
      "byteOffset": 7339680,
      "componentType": 5126,
      "count": 65534,
      "max": [
        1,
        1,
        1,
        1
      ],
      "min": [
        0,
        0,
        0,
        1
      ],
      "type": "VEC4"
    },
    {
      "bufferView": 1,
      "byteOffset": 1572784,
      "componentType": 5126,
      "count": 65534,
      "max": [
        0,
        0
      ],
      "min": [
        0,
        0
      ],
      "type": "VEC2"
    },
    {
      "bufferView": 0,
      "byteOffset": 786480,
      "componentType": 5125,
      "count": 65538,
      "max": [
        65533
      ],
      "min": [
        0
      ],
      "type": "SCALAR"
    },
    {
      "bufferView": 2,
      "byteOffset": 6291168,
      "componentType": 5126,
      "count": 65534,
      "max": [
        0.59738099575042725,
        0.99893200397491455,
        0.70452398061752319
      ],
      "min": [
        -0.59806197881698608,
        -1.0425399541854858,
        -0.7198290228843689
      ],
      "type": "VEC3"
    },
    {
      "bufferView": 2,
      "byteOffset": 7077576,
      "componentType": 5126,
      "count": 65534,
      "max": [
        0.9999728798866272,
        0.9999539852142334,
        0.99930655956268311
      ],
      "min": [
        -0.99986881017684937,
        -0.99990969896316528,
        -0.99999630451202393
      ],
      "type": "VEC3"
    },
    {
      "bufferView": 3,
      "byteOffset": 8388224,
      "componentType": 5126,
      "count": 65534,
      "max": [
        0,
        0,
        0,
        1
      ],
      "min": [
        0,
        0,
        0,
        1
      ],
      "type": "VEC4"
    },
    {
      "bufferView": 3,
      "byteOffset": 9436768,
      "componentType": 5126,
      "count": 65534,
      "max": [
        1,
        1,
        1,
        1
      ],
      "min": [
        0,
        0,
        0,
        1
      ],
      "type": "VEC4"
    },
    {
      "bufferView": 1,
      "byteOffset": 2097056,
      "componentType": 5126,
      "count": 65534,
      "max": [
        0,
        0
      ],
      "min": [
        0,
        0
      ],
      "type": "VEC2"
    },
    {
      "bufferView": 0,
      "byteOffset": 1048632,
      "componentType": 5125,
      "count": 65541,
      "max": [
        65533
      ],
      "min": [
        0
      ],
      "type": "SCALAR"
    },
    {
      "bufferView": 2,
      "byteOffset": 7863984,
      "componentType": 5126,
      "count": 65532,
      "max": [
        0.59639698266983032,
        0.99756699800491333,
        0.70418500900268555
      ],
      "min": [
        -0.59806197881698608,
        -1.0420620441436768,
        -0.7185090184211731
      ],
      "type": "VEC3"
    },
    {
      "bufferView": 2,
      "byteOffset": 8650368,
      "componentType": 5126,
      "count": 65532,
      "max": [
        0.99990451335906982,
        0.99992382526397705,
        0.99987292289733887
      ],
      "min": [
        -0.99996775388717651,
        -0.9999995231628418,
        -0.99992352724075317
      ],
      "type": "VEC3"
    },
    {
      "bufferView": 3,
      "byteOffset": 10485312,
      "componentType": 5126,
      "count": 65532,
      "max": [
        0,
        0,
        0,
        1
      ],
      "min": [
        0,
        0,
        0,
        1
      ],
      "type": "VEC4"
    },
    {
      "bufferView": 3,
      "byteOffset": 11533824,
      "componentType": 5126,
      "count": 65532,
      "max": [
        1,
        1,
        1,
        1
      ],
      "min": [
        0,
        0,
        0,
        1
      ],
      "type": "VEC4"
    },
    {
      "bufferView": 1,
      "byteOffset": 2621328,
      "componentType": 5126,
      "count": 65532,
      "max": [
        0,
        0
      ],
      "min": [
        0,
        0
      ],
      "type": "VEC2"
    },
    {
      "bufferView": 0,
      "byteOffset": 1310796,
      "componentType": 5125,
      "count": 65547,
      "max": [
        65531
      ],
      "min": [
        0
      ],
      "type": "SCALAR"
    },
    {
      "bufferView": 2,
      "byteOffset": 9436752,
      "componentType": 5126,
      "count": 65532,
      "max": [
        0.59813898801803589,
        0.99893200397491455,
        0.70452398061752319
      ],
      "min": [
        -0.5976790189743042,
        -1.0425089597702026,
        -0.71979302167892456
      ],
      "type": "VEC3"
    },
    {
      "bufferView": 2,
      "byteOffset": 10223136,
      "componentType": 5126,
      "count": 65532,
      "max": [
        0.99996286630630493,
        0.99993437528610229,
        0.99988430738449097
      ],
      "min": [
        -0.99993628263473511,
        -0.99977332353591919,
        -0.99992412328720093
      ],
      "type": "VEC3"
    },
    {
      "bufferView": 3,
      "byteOffset": 12582336,
      "componentType": 5126,
      "count": 65532,
      "max": [
        0,
        0,
        0,
        1
      ],
      "min": [
        0,
        0,
        0,
        1
      ],
      "type": "VEC4"
    },
    {
      "bufferView": 3,
      "byteOffset": 13630848,
      "componentType": 5126,
      "count": 65532,
      "max": [
        1,
        1,
        1,
        1
      ],
      "min": [
        0,
        0,
        0,
        1
      ],
      "type": "VEC4"
    },
    {
      "bufferView": 1,
      "byteOffset": 3145584,
      "componentType": 5126,
      "count": 65532,
      "max": [
        0,
        0
      ],
      "min": [
        0,
        0
      ],
      "type": "VEC2"
    },
    {
      "bufferView": 0,
      "byteOffset": 1572984,
      "componentType": 5125,
      "count": 65541,
      "max": [
        65531
      ],
      "min": [
        0
      ],
      "type": "SCALAR"
    },
    {
      "bufferView": 2,
      "byteOffset": 11009520,
      "componentType": 5126,
      "count": 65532,
      "max": [
        0.59772801399230957,
        0.99882000684738159,
        0.70375001430511475
      ],
      "min": [
        -0.59658199548721313,
        -1.0425399541854858,
        -0.71990001201629639
      ],
      "type": "VEC3"
    },
    {
      "bufferView": 2,
      "byteOffset": 11795904,
      "componentType": 5126,
      "count": 65532,
      "max": [
        0.99983525276184082,
        0.99999165534973145,
        0.99980103969573975
      ],
      "min": [
        -0.99999868869781494,
        -0.99998539686203003,
        -0.99995923042297363
      ],
      "type": "VEC3"
    },
    {
      "bufferView": 3,
      "byteOffset": 14679360,
      "componentType": 5126,
      "count": 65532,
      "max": [
        0,
        0,
        0,
        1
      ],
      "min": [
        0,
        0,
        0,
        1
      ],
      "type": "VEC4"
    },
    {
      "bufferView": 3,
      "byteOffset": 15727872,
      "componentType": 5126,
      "count": 65532,
      "max": [
        1,
        1,
        1,
        1
      ],
      "min": [
        0,
        0,
        0,
        1
      ],
      "type": "VEC4"
    },
    {
      "bufferView": 1,
      "byteOffset": 3669840,
      "componentType": 5126,
      "count": 65532,
      "max": [
        0,
        0
      ],
      "min": [
        0,
        0
      ],
      "type": "VEC2"
    },
    {
      "bufferView": 0,
      "byteOffset": 1835148,
      "componentType": 5125,
      "count": 65547,
      "max": [
        65531
      ],
      "min": [
        0
      ],
      "type": "SCALAR"
    },
    {
      "bufferView": 2,
      "byteOffset": 12582288,
      "componentType": 5126,
      "count": 65533,
      "max": [
        0.59738099575042725,
        0.99893498420715332,
        0.704367995262146
      ],
      "min": [
        -0.5976790189743042,
        -1.0416769981384277,
        -0.71806097030639648
      ],
      "type": "VEC3"
    },
    {
      "bufferView": 2,
      "byteOffset": 13368684,
      "componentType": 5126,
      "count": 65533,
      "max": [
        0.99999541044235229,
        0.99998009204864502,
        0.99963980913162231
      ],
      "min": [
        -0.99997484683990479,
        -0.99976915121078491,
        -0.99996620416641235
      ],
      "type": "VEC3"
    },
    {
      "bufferView": 3,
      "byteOffset": 16776384,
      "componentType": 5126,
      "count": 65533,
      "max": [
        0,
        0,
        0,
        1
      ],
      "min": [
        0,
        0,
        0,
        1
      ],
      "type": "VEC4"
    },
    {
      "bufferView": 3,
      "byteOffset": 17824912,
      "componentType": 5126,
      "count": 65533,
      "max": [
        1,
        1,
        1,
        1
      ],
      "min": [
        0,
        0,
        0,
        1
      ],
      "type": "VEC4"
    },
    {
      "bufferView": 1,
      "byteOffset": 4194096,
      "componentType": 5126,
      "count": 65533,
      "max": [
        0,
        0
      ],
      "min": [
        0,
        0
      ],
      "type": "VEC2"
    },
    {
      "bufferView": 0,
      "byteOffset": 2097336,
      "componentType": 5125,
      "count": 65547,
      "max": [
        65532
      ],
      "min": [
        0
      ],
      "type": "SCALAR"
    },
    {
      "bufferView": 2,
      "byteOffset": 14155080,
      "componentType": 5126,
      "count": 10107,
      "max": [
        0.59703701734542847,
        0.99893498420715332,
        0.69733500480651855
      ],
      "min": [
        -0.59496599435806274,
        -1.0411059856414795,
        -0.70361799001693726
      ],
      "type": "VEC3"
    },
    {
      "bufferView": 2,
      "byteOffset": 14276364,
      "componentType": 5126,
      "count": 10107,
      "max": [
        0.99967193603515625,
        0.99964731931686401,
        0.99997234344482422
      ],
      "min": [
        -0.9999663233757019,
        -0.99875980615615845,
        -0.99943464994430542
      ],
      "type": "VEC3"
    },
    {
      "bufferView": 3,
      "byteOffset": 18873440,
      "componentType": 5126,
      "count": 10107,
      "max": [
        0,
        0,
        0,
        1
      ],
      "min": [
        0,
        0,
        0,
        1
      ],
      "type": "VEC4"
    },
    {
      "bufferView": 3,
      "byteOffset": 19035152,
      "componentType": 5126,
      "count": 10107,
      "max": [
        1,
        1,
        1,
        1
      ],
      "min": [
        0,
        0,
        0,
        1
      ],
      "type": "VEC4"
    },
    {
      "bufferView": 1,
      "byteOffset": 4718360,
      "componentType": 5126,
      "count": 10107,
      "max": [
        0,
        0
      ],
      "min": [
        0,
        0
      ],
      "type": "VEC2"
    },
    {
      "bufferView": 0,
      "byteOffset": 2359524,
      "componentType": 5125,
      "count": 10107,
      "max": [
        10106
      ],
      "min": [
        0
      ],
      "type": "SCALAR"
    }
  ],
  "asset": {
    "extras": {
      "author": "Chaitanya Krishnan (https://sketchfab.com/chaitanyak)",
      "license": "CC-BY-4.0 (http://creativecommons.org/licenses/by/4.0/)",
      "source": "https://sketchfab.com/3d-models/octo-splat-face-521b8c18cacf43de895e88e12c445ec8",
      "title": "Octo Splat Face"
    },
    "generator": "Sketchfab-5.84.2",
    "version": "2.0"
  },
  "bufferViews": [
    {
      "buffer": 0,
      "byteLength": 2399952,
      "byteOffset": 0,
      "name": "floatBufferViews",
      "target": 34963
    },
    {
      "buffer": 0,
      "byteLength": 4799216,
      "byteOffset": 2399952,
      "byteStride": 8,
      "name": "floatBufferViews",
      "target": 34962
    },
    {
      "buffer": 0,
      "byteLength": 14397648,
      "byteOffset": 7199168,
      "byteStride": 12,
      "name": "floatBufferViews",
      "target": 34962
    },
    {
      "buffer": 0,
      "byteLength": 19196864,
      "byteOffset": 21596816,
      "byteStride": 16,
      "name": "floatBufferViews",
      "target": 34962
    }
  ],
  "buffers": [
    {
      "byteLength": 40793680,
      "uri": "scene.bin"
    }
  ],
  "materials": [
    {
      "doubleSided": true,
      "emissiveFactor": [
        0,
        0,
        0
      ],
      "name": "Scene_-_Root",
      "pbrMetallicRoughness": {
        "baseColorFactor": [
          1,
          1,
          1,
          1
        ],
        "metallicFactor": 0,
        "roughnessFactor": 0.21303353658536586
      }
    }
  ],
  "meshes": [
    {
      "primitives": [
        {
          "attributes": {
            "COLOR_0": 3,
            "NORMAL": 1,
            "POSITION": 0,
            "TANGENT": 2,
            "TEXCOORD_0": 4
          },
          "indices": 5,
          "material": 0,
          "mode": 4
        }
      ]
    },
    {
      "primitives": [
        {
          "attributes": {
            "COLOR_0": 9,
            "NORMAL": 7,
            "POSITION": 6,
            "TANGENT": 8,
            "TEXCOORD_0": 10
          },
          "indices": 11,
          "material": 0,
          "mode": 4
        }
      ]
    },
    {
      "primitives": [
        {
          "attributes": {
            "COLOR_0": 15,
            "NORMAL": 13,
            "POSITION": 12,
            "TANGENT": 14,
            "TEXCOORD_0": 16
          },
          "indices": 17,
          "material": 0,
          "mode": 4
        }
      ]
    },
    {
      "primitives": [
        {
          "attributes": {
            "COLOR_0": 21,
            "NORMAL": 19,
            "POSITION": 18,
            "TANGENT": 20,
            "TEXCOORD_0": 22
          },
          "indices": 23,
          "material": 0,
          "mode": 4
        }
      ]
    },
    {
      "primitives": [
        {
          "attributes": {
            "COLOR_0": 27,
            "NORMAL": 25,
            "POSITION": 24,
            "TANGENT": 26,
            "TEXCOORD_0": 28
          },
          "indices": 29,
          "material": 0,
          "mode": 4
        }
      ]
    },
    {
      "primitives": [
        {
          "attributes": {
            "COLOR_0": 33,
            "NORMAL": 31,
            "POSITION": 30,
            "TANGENT": 32,
            "TEXCOORD_0": 34
          },
          "indices": 35,
          "material": 0,
          "mode": 4
        }
      ]
    },
    {
      "primitives": [
        {
          "attributes": {
            "COLOR_0": 39,
            "NORMAL": 37,
            "POSITION": 36,
            "TANGENT": 38,
            "TEXCOORD_0": 40
          },
          "indices": 41,
          "material": 0,
          "mode": 4
        }
      ]
    },
    {
      "primitives": [
        {
          "attributes": {
            "COLOR_0": 45,
            "NORMAL": 43,
            "POSITION": 42,
            "TANGENT": 44,
            "TEXCOORD_0": 46
          },
          "indices": 47,
          "material": 0,
          "mode": 4
        }
      ]
    },
    {
      "primitives": [
        {
          "attributes": {
            "COLOR_0": 51,
            "NORMAL": 49,
            "POSITION": 48,
            "TANGENT": 50,
            "TEXCOORD_0": 52
          },
          "indices": 53,
          "material": 0,
          "mode": 4
        }
      ]
    },
    {
      "primitives": [
        {
          "attributes": {
            "COLOR_0": 57,
            "NORMAL": 55,
            "POSITION": 54,
            "TANGENT": 56,
            "TEXCOORD_0": 58
          },
          "indices": 59,
          "material": 0,
          "mode": 4
        }
      ]
    }
  ],
  "nodes": [
    {
      "children": [
        1
      ],
      "name": "RootNode (gltf orientation matrix)",
      "rotation": [
        -0.70710678118654746,
        -0,
        -0,
        0.70710678118654757
      ]
    },
    {
      "children": [
        2
      ],
      "matrix": [
        -1,
        0,
        2.832769343193999e-16,
        0,
        0,
        1,
        0,
        0,
        -2.832769343193999e-16,
        0,
        -1,
        0,
        7.7962875366210938e-05,
        0,
        -0.043604135513305664,
        1
      ],
      "name": "RootNode (model correction matrix)"
    },
    {
      "children": [
        3,
        4,
        5,
        6,
        7,
        8,
        9,
        10,
        11,
        12
      ],
      "matrix": [
        1,
        0,
        0,
        0,
        0,
        0,
        1,
        0,
        0,
        -1,
        0,
        0,
        0,
        0,
        0,
        1
      ],
      "name": "341a990a888146a6bc16d9731a28a796.wrl.cleaner.materialmerger.gles"
    },
    {
      "mesh": 0,
      "name": ""
    },
    {
      "mesh": 1,
      "name": ""
    },
    {
      "mesh": 2,
      "name": ""
    },
    {
      "mesh": 3,
      "name": ""
    },
    {
      "mesh": 4,
      "name": ""
    },
    {
      "mesh": 5,
      "name": ""
    },
    {
      "mesh": 6,
      "name": ""
    },
    {
      "mesh": 7,
      "name": ""
    },
    {
      "mesh": 8,
      "name": ""
    },
    {
      "mesh": 9,
      "name": ""
    }
  ],
  "scene": 0,
  "scenes": [
    {
      "name": "OSG_Scene",
      "nodes": [
        0
      ]
    }
  ]
}

