{
  "accessors": [
    {
      "bufferView": 2,
      "componentType": 5126,
      "count": 65532,
      "max": [
        1.7121665477752686,
        0.10356378555297852,
        0.6678464412689209
      ],
      "min": [
        -0.011440455913543701,
        -0.19543695449829102,
        -0.58110356330871582
      ],
      "type": "VEC3"
    },
    {
      "bufferView": 2,
      "byteOffset": 786384,
      "componentType": 5126,
      "count": 65532,
      "max": [
        0.99981838464736938,
        0.9999927282333374,
        0.99997502565383911
      ],
      "min": [
        -0.99947774410247803,
        -0.99998915195465088,
        -0.99997115135192871
      ],
      "type": "VEC3"
    },
    {
      "bufferView": 1,
      "componentType": 5126,
      "count": 65532,
      "max": [
        0.9991689920425415,
        0.99929600954055786
      ],
      "min": [
        0.00064500002190470695,
        0.00089800002751871943
      ],
      "type": "VEC2"
    },
    {
      "bufferView": 0,
      "componentType": 5125,
      "count": 65532,
      "max": [
        65531
      ],
      "min": [
        0
      ],
      "type": "SCALAR"
    },
    {
      "bufferView": 2,
      "byteOffset": 1572768,
      "componentType": 5126,
      "count": 65532,
      "max": [
        1.6416769027709961,
        0.014256071299314499,
        0.61636537313461304
      ],
      "min": [
        0.34478402137756348,
        -0.15262508392333984,
        -0.5774957537651062
      ],
      "type": "VEC3"
    },
    {
      "bufferView": 2,
      "byteOffset": 2359152,
      "componentType": 5126,
      "count": 65532,
      "max": [
        0.96093815565109253,
        0.99641835689544678,
        0.87142282724380493
      ],
      "min": [
        -0.98776966333389282,
        -0.99999386072158813,
        -0.98570507764816284
      ],
      "type": "VEC3"
    },
    {
      "bufferView": 1,
      "byteOffset": 524256,
      "componentType": 5126,
      "count": 65532,
      "max": [
        0.65228915214538574,
        0.99936997890472412
      ],
      "min": [
        0.011556682176887989,
        0.39047005772590637
      ],
      "type": "VEC2"
    },
    {
      "bufferView": 0,
      "byteOffset": 262128,
      "componentType": 5125,
      "count": 65532,
      "max": [
        65531
      ],
      "min": [
        0
      ],
      "type": "SCALAR"
    },
    {
      "bufferView": 2,
      "byteOffset": 3145536,
      "componentType": 5126,
      "count": 65532,
      "max": [
        1.6879247426986694,
        0.069346308708190918,
        0.66565835475921631
      ],
      "min": [
        0.13399918377399445,
        -0.1524185985326767,
        -0.55076324939727783
      ],
      "type": "VEC3"
    },
    {
      "bufferView": 2,
      "byteOffset": 3931920,
      "componentType": 5126,
      "count": 65532,
      "max": [
        0.99412357807159424,
        0.99997490644454956,
        0.99309748411178589
      ],
      "min": [
        -0.96852976083755493,
        -0.9999847412109375,
        -0.95612531900405884
      ],
      "type": "VEC3"
    },
    {
      "bufferView": 1,
      "byteOffset": 1048512,
      "componentType": 5126,
      "count": 65532,
      "max": [
        0.5461999773979187,
        0.99934500455856323
      ],
      "min": [
        0.0017126565799117088,
        0.75021499395370483
      ],
      "type": "VEC2"
    },
    {
      "bufferView": 0,
      "byteOffset": 524256,
      "componentType": 5125,
      "count": 65532,
      "max": [
        65531
      ],
      "min": [
        0
      ],
      "type": "SCALAR"
    },
    {
      "bufferView": 2,
      "byteOffset": 4718304,
      "componentType": 5126,
      "count": 65532,
      "max": [
        0.94549262523651123,
        0.087677441537380219,
        0.65196621417999268
      ],
      "min": [
        -0.0098004937171936035,
        -0.12399578094482422,
        -0.55077368021011353
      ],
      "type": "VEC3"
    },
    {
      "bufferView": 2,
      "byteOffset": 5504688,
      "componentType": 5126,
      "count": 65532,
      "max": [
        0.91426563262939453,
        0.60507726669311523,
        0.8734697699546814
      ],
      "min": [
        -0.94512248039245605,
        -0.99999541044235229,
        -0.97942668199539185
      ],
      "type": "VEC3"
    },
    {
      "bufferView": 1,
      "byteOffset": 1572768,
      "componentType": 5126,
      "count": 65532,
      "max": [
        0.53130871057510376,
        0.95146298408508301
      ],
      "min": [
        0.052034001797437668,
        0.57637900114059448
      ],
      "type": "VEC2"
    },
    {
      "bufferView": 0,
      "byteOffset": 786384,
      "componentType": 5125,
      "count": 65532,
      "max": [
        65531
      ],
      "min": [
        0
      ],
      "type": "SCALAR"
    },
    {
      "bufferView": 2,
      "byteOffset": 6291072,
      "componentType": 5126,
      "count": 9891,
      "max": [
        1.5999983549118042,
        0.010198564268648624,
        0.62432479858398438
      ],
      "min": [
        0.077791512012481689,
        -0.11537192016839981,
        -0.56422871351242065
      ],
      "type": "VEC3"
    },
    {
      "bufferView": 2,
      "byteOffset": 6409764,
      "componentType": 5126,
      "count": 9891,
      "max": [
        0.5501822829246521,
        0.88897347450256348,
        0.88537627458572388
      ],
      "min": [
        -0.69869667291641235,
        -0.999977707862854,
        -0.64106541872024536
      ],
      "type": "VEC3"
    },
    {
      "bufferView": 1,
      "byteOffset": 2097024,
      "componentType": 5126,
      "count": 9891,
      "max": [
        0.37272965908050537,
        0.73556375503540039
      ],
      "min": [
        0.14167700707912445,
        0.39047005772590637
      ],
      "type": "VEC2"
    },
    {
      "bufferView": 0,
      "byteOffset": 1048512,
      "componentType": 5125,
      "count": 9891,
      "max": [
        9890
      ],
      "min": [
        0
      ],
      "type": "SCALAR"
    },
    {
      "bufferView": 2,
      "byteOffset": 6528456,
      "componentType": 5126,
      "count": 64374,
      "max": [
        1.7135233879089355,
        0.10346446186304092,
        0.6741034984588623
      ],
      "min": [
        -0.0023534893989562988,
        -0.19442340731620789,
        -0.58169096708297729
      ],
      "type": "VEC3"
    },
    {
      "bufferView": 2,
      "byteOffset": 7300944,
      "componentType": 5126,
      "count": 64374,
      "max": [
        0.99977624416351318,
        0.99999403953552246,
        0.99982559680938721
      ],
      "min": [
        -0.98882222175598145,
        -0.99999874830245972,
        -0.99998897314071655
      ],
      "type": "VEC3"
    },
    {
      "bufferView": 1,
      "byteOffset": 2176152,
      "componentType": 5126,
      "count": 64374,
      "max": [
        1.999269962310791,
        0.99936401844024658
      ],
      "min": [
        1.0007250308990479,
        0.00063299998873844743
      ],
      "type": "VEC2"
    },
    {
      "bufferView": 0,
      "byteOffset": 1088076,
      "componentType": 5125,
      "count": 64374,
      "max": [
        64373
      ],
      "min": [
        0
      ],
      "type": "SCALAR"
    },
    {
      "bufferView": 2,
      "byteOffset": 8073432,
      "componentType": 5126,
      "count": 65532,
      "max": [
        1.7135233879089355,
        0.1085357666015625,
        0.67149889469146729
      ],
      "min": [
        -0.0078144669532775879,
        -0.19023013114929199,
        -0.57981997728347778
      ],
      "type": "VEC3"
    },
    {
      "bufferView": 2,
      "byteOffset": 8859816,
      "componentType": 5126,
      "count": 65532,
      "max": [
        0.99979537725448608,
        0.99998754262924194,
        0.99999791383743286
      ],
      "min": [
        -0.99905788898468018,
        -0.99999278783798218,
        -0.99997454881668091
      ],
      "type": "VEC3"
    },
    {
      "bufferView": 1,
      "byteOffset": 2691144,
      "componentType": 5126,
      "count": 65532,
      "max": [
        2.9992969036102295,
        0.99938201904296875
      ],
      "min": [
        2.0006380081176758,
        0.00075100001413375139
      ],
      "type": "VEC2"
    },
    {
      "bufferView": 0,
      "byteOffset": 1345572,
      "componentType": 5125,
      "count": 65532,
      "max": [
        65531
      ],
      "min": [
        0
      ],
      "type": "SCALAR"
    },
    {
      "bufferView": 2,
      "byteOffset": 9646200,
      "componentType": 5126,
      "count": 48276,
      "max": [
        1.7112026214599609,
        0.095638088881969452,
        0.66272872686386108
      ],
      "min": [
        0.0024001493584364653,
        -0.19516558945178986,
        -0.57906824350357056
      ],
      "type": "VEC3"
    },
    {
      "bufferView": 2,
      "byteOffset": 10225512,
      "componentType": 5126,
      "count": 48276,
      "max": [
        0.99994724988937378,
        0.99999988079071045,
        0.99955761432647705
      ],
      "min": [
        -0.99058228731155396,
        -0.99999344348907471,
        -0.99971139430999756
      ],
      "type": "VEC3"
    },
    {
      "bufferView": 1,
      "byteOffset": 3215400,
      "componentType": 5126,
      "count": 48276,
      "max": [
        2.9966909885406494,
        0.97611099481582642
      ],
      "min": [
        2.1672589778900146,
        0.0091217989102005959
      ],
      "type": "VEC2"
    },
    {
      "bufferView": 0,
      "byteOffset": 1607700,
      "componentType": 5125,
      "count": 48276,
      "max": [
        48275
      ],
      "min": [
        0
      ],
      "type": "SCALAR"
    },
    {
      "bufferView": 2,
      "byteOffset": 10804824,
      "componentType": 5126,
      "count": 65532,
      "max": [
        1.71296226978302,
        0.10920882225036621,
        0.66779285669326782
      ],
      "min": [
        -0.0036734938621520996,
        -0.19556595385074615,
        -0.58112728595733643
      ],
      "type": "VEC3"
    },
    {
      "bufferView": 2,
      "byteOffset": 11591208,
      "componentType": 5126,
      "count": 65532,
      "max": [
        0.99992507696151733,
        0.99999713897705078,
        0.99997007846832275
      ],
      "min": [
        -0.99971437454223633,
        -0.99999922513961792,
        -0.99999541044235229
      ],
      "type": "VEC3"
    },
    {
      "bufferView": 1,
      "byteOffset": 3601608,
      "componentType": 5126,
      "count": 65532,
      "max": [
        3.7333180904388428,
        0.9993780255317688
      ],
      "min": [
        3.0006210803985596,
        0.00073400000110268593
      ],
      "type": "VEC2"
    },
    {
      "bufferView": 0,
      "byteOffset": 1800804,
      "componentType": 5125,
      "count": 65532,
      "max": [
        65531
      ],
      "min": [
        0
      ],
      "type": "SCALAR"
    },
    {
      "bufferView": 2,
      "byteOffset": 12377592,
      "componentType": 5126,
      "count": 10467,
      "max": [
        1.7038625478744507,
        0.1013830304145813,
        0.6602521538734436
      ],
      "min": [
        0.0016785264015197754,
        -0.18947073817253113,
        -0.56046700477600098
      ],
      "type": "VEC3"
    },
    {
      "bufferView": 2,
      "byteOffset": 12503196,
      "componentType": 5126,
      "count": 10467,
      "max": [
        0.99998897314071655,
        0.99997740983963013,
        0.99990224838256836
      ],
      "min": [
        -0.9553678035736084,
        -0.99993652105331421,
        -0.99851077795028687
      ],
      "type": "VEC3"
    },
    {
      "bufferView": 1,
      "byteOffset": 4125864,
      "componentType": 5126,
      "count": 10467,
      "max": [
        3.3646974563598633,
        0.96634697914123535
      ],
      "min": [
        3.1589670181274414,
        0.00062599999364465475
      ],
      "type": "VEC2"
    },
    {
      "bufferView": 0,
      "byteOffset": 2062932,
      "componentType": 5125,
      "count": 10467,
      "max": [
        10466
      ],
      "min": [
        0
      ],
      "type": "SCALAR"
    }
  ],
  "asset": {
    "extras": {
      "author": "rk_0009 (https://sketchfab.com/rk_0009)",
      "license": "CC-BY-4.0 (http://creativecommons.org/licenses/by/4.0/)",
      "source": "https://sketchfab.com/3d-models/painting-1-b484376d4d97481699d49e9421d4dc0b",
      "title": "Painting_1"
    },
    "generator": "Sketchfab-10.3.0",
    "version": "2.0"
  },
  "bufferViews": [
    {
      "buffer": 0,
      "byteLength": 2104800,
      "byteOffset": 0,
      "name": "floatBufferViews",
      "target": 34963
    },
    {
      "buffer": 0,
      "byteLength": 4209600,
      "byteOffset": 2104800,
      "byteStride": 8,
      "name": "floatBufferViews",
      "target": 34962
    },
    {
      "buffer": 0,
      "byteLength": 12628800,
      "byteOffset": 6314400,
      "byteStride": 12,
      "name": "floatBufferViews",
      "target": 34962
    }
  ],
  "buffers": [
    {
      "byteLength": 18943200,
      "uri": "scene.bin"
    }
  ],
  "images": [
    {
      "uri": "textures/TextureAtlas_1001_baseColor.png"
    },
    {
      "uri": "textures/TextureAtlas_1002_baseColor.png"
    },
    {
      "uri": "textures/TextureAtlas_1003_baseColor.png"
    },
    {
      "uri": "textures/TextureAtlas_1004_baseColor.png"
    }
  ],
  "materials": [
    {
      "doubleSided": true,
      "emissiveFactor": [
        0,
        0,
        0
      ],
      "name": "TextureAtlas_1001",
      "pbrMetallicRoughness": {
        "baseColorFactor": [
          1,
          1,
          1,
          1
        ],
        "baseColorTexture": {
          "index": 0,
          "texCoord": 0
        },
        "metallicFactor": 0,
        "roughnessFactor": 1
      }
    },
    {
      "doubleSided": true,
      "emissiveFactor": [
        0,
        0,
        0
      ],
      "name": "TextureAtlas_1002",
      "pbrMetallicRoughness": {
        "baseColorFactor": [
          1,
          1,
          1,
          1
        ],
        "baseColorTexture": {
          "index": 1,
          "texCoord": 0
        },
        "metallicFactor": 0,
        "roughnessFactor": 1
      }
    },
    {
      "doubleSided": true,
      "emissiveFactor": [
        0,
        0,
        0
      ],
      "name": "TextureAtlas_1003",
      "pbrMetallicRoughness": {
        "baseColorFactor": [
          1,
          1,
          1,
          1
        ],
        "baseColorTexture": {
          "index": 2,
          "texCoord": 0
        },
        "metallicFactor": 0,
        "roughnessFactor": 1
      }
    },
    {
      "doubleSided": true,
      "emissiveFactor": [
        0,
        0,
        0
      ],
      "name": "TextureAtlas_1004",
      "pbrMetallicRoughness": {
        "baseColorFactor": [
          1,
          1,
          1,
          1
        ],
        "baseColorTexture": {
          "index": 3,
          "texCoord": 0
        },
        "metallicFactor": 0,
        "roughnessFactor": 1
      }
    }
  ],
  "meshes": [
    {
      "primitives": [
        {
          "attributes": {
            "NORMAL": 1,
            "POSITION": 0,
            "TEXCOORD_0": 2
          },
          "indices": 3,
          "material": 0,
          "mode": 4
        }
      ]
    },
    {
      "primitives": [
        {
          "attributes": {
            "NORMAL": 5,
            "POSITION": 4,
            "TEXCOORD_0": 6
          },
          "indices": 7,
          "material": 0,
          "mode": 4
        }
      ]
    },
    {
      "primitives": [
        {
          "attributes": {
            "NORMAL": 9,
            "POSITION": 8,
            "TEXCOORD_0": 10
          },
          "indices": 11,
          "material": 0,
          "mode": 4
        }
      ]
    },
    {
      "primitives": [
        {
          "attributes": {
            "NORMAL": 13,
            "POSITION": 12,
            "TEXCOORD_0": 14
          },
          "indices": 15,
          "material": 0,
          "mode": 4
        }
      ]
    },
    {
      "primitives": [
        {
          "attributes": {
            "NORMAL": 17,
            "POSITION": 16,
            "TEXCOORD_0": 18
          },
          "indices": 19,
          "material": 0,
          "mode": 4
        }
      ]
    },
    {
      "primitives": [
        {
          "attributes": {
            "NORMAL": 21,
            "POSITION": 20,
            "TEXCOORD_0": 22
          },
          "indices": 23,
          "material": 1,
          "mode": 4
        }
      ]
    },
    {
      "primitives": [
        {
          "attributes": {
            "NORMAL": 25,
            "POSITION": 24,
            "TEXCOORD_0": 26
          },
          "indices": 27,
          "material": 2,
          "mode": 4
        }
      ]
    },
    {
      "primitives": [
        {
          "attributes": {
            "NORMAL": 29,
            "POSITION": 28,
            "TEXCOORD_0": 30
          },
          "indices": 31,
          "material": 2,
          "mode": 4
        }
      ]
    },
    {
      "primitives": [
        {
          "attributes": {
            "NORMAL": 33,
            "POSITION": 32,
            "TEXCOORD_0": 34
          },
          "indices": 35,
          "material": 3,
          "mode": 4
        }
      ]
    },
    {
      "primitives": [
        {
          "attributes": {
            "NORMAL": 37,
            "POSITION": 36,
            "TEXCOORD_0": 38
          },
          "indices": 39,
          "material": 3,
          "mode": 4
        }
      ]
    }
  ],
  "nodes": [
    {
      "children": [
        1
      ],
      "name": "RootNode (gltf orientation matrix)",
      "rotation": [
        -0.70710678118654746,
        -0,
        -0,
        0.70710678118654757
      ]
    },
    {
      "children": [
        2
      ],
      "name": "RootNode (model correction matrix)"
    },
    {
      "children": [
        3
      ],
      "name": "root"
    },
    {
      "children": [
        4
      ],
      "matrix": [
        1,
        0,
        0,
        0,
        0,
        2.2204460492503131e-16,
        1,
        0,
        0,
        -1,
        2.2204460492503131e-16,
        0,
        0,
        0,
        0,
        1
      ],
      "name": "GLTF_SceneRootNode"
    },
    {
      "children": [
        5,
        6,
        7,
        8,
        9,
        10,
        11,
        12,
        13,
        14
      ],
      "matrix": [
        -0.017153244387147604,
        0.99882909277870269,
        -0.045235048644480913,
        0,
        0.18921808603275214,
        -0.041181316938775137,
        -0.98107115697756109,
        0,
        -0.98178525255021876,
        -0.025387842642924929,
        -0.18829013601578115,
        0,
        -0.055347912013530731,
        -0.011764895170927048,
        0.017429320141673088,
        1
      ],
      "name": "texturedMesh_1"
    },
    {
      "mesh": 0,
      "name": ""
    },
    {
      "mesh": 1,
      "name": ""
    },
    {
      "mesh": 2,
      "name": ""
    },
    {
      "mesh": 3,
      "name": ""
    },
    {
      "mesh": 4,
      "name": ""
    },
    {
      "mesh": 5,
      "name": ""
    },
    {
      "mesh": 6,
      "name": ""
    },
    {
      "mesh": 7,
      "name": ""
    },
    {
      "mesh": 8,
      "name": ""
    },
    {
      "mesh": 9,
      "name": ""
    }
  ],
  "samplers": [
    {
      "magFilter": 9729,
      "minFilter": 9987,
      "wrapS": 10497,
      "wrapT": 10497
    }
  ],
  "scene": 0,
  "scenes": [
    {
      "name": "OSG_Scene",
      "nodes": [
        0
      ]
    }
  ],
  "textures": [
    {
      "sampler": 0,
      "source": 0
    },
    {
      "sampler": 0,
      "source": 1
    },
    {
      "sampler": 0,
      "source": 2
    },
    {
      "sampler": 0,
      "source": 3
    }
  ]
}

