{
  "accessors": [
    {
      "bufferView": 2,
      "componentType": 5126,
      "count": 65532,
      "max": [
        3.7483630180358887,
        7.9222378730773926,
        5.2855072021484375
      ],
      "min": [
        -9.3269062042236328,
        3.501939058303833,
        1.6223130226135254
      ],
      "type": "VEC3"
    },
    {
      "bufferView": 2,
      "byteOffset": 786384,
      "componentType": 5126,
      "count": 65532,
      "max": [
        0.99999809265136719,
        0.99967461824417114,
        0.99999547004699707
      ],
      "min": [
        -0.99995577335357666,
        -0.99999475479125977,
        -0.99999922513961792
      ],
      "type": "VEC3"
    },
    {
      "bufferView": 3,
      "componentType": 5126,
      "count": 65532,
      "max": [
        0.9999995231628418,
        0.99995088577270508,
        0.99773389101028442,
        1
      ],
      "min": [
        -0.99999922513961792,
        -0.99997562170028687,
        -1,
        -1
      ],
      "type": "VEC4"
    },
    {
      "bufferView": 1,
      "componentType": 5126,
      "count": 65532,
      "max": [
        0.92871600389480591,
        1
      ],
      "min": [
        0,
        9.4000002718530595e-05
      ],
      "type": "VEC2"
    },
    {
      "bufferView": 0,
      "componentType": 5125,
      "count": 373926,
      "max": [
        65531
      ],
      "min": [
        0
      ],
      "type": "SCALAR"
    },
    {
      "bufferView": 2,
      "byteOffset": 1572768,
      "componentType": 5126,
      "count": 16085,
      "max": [
        3.3997700214385986,
        7.9222378730773926,
        5.2748432159423828
      ],
      "min": [
        -9.336033821105957,
        3.501939058303833,
        1.6232320070266724
      ],
      "type": "VEC3"
    },
    {
      "bufferView": 2,
      "byteOffset": 1765788,
      "componentType": 5126,
      "count": 16085,
      "max": [
        0.99992001056671143,
        0.99986362457275391,
        0.99999547004699707
      ],
      "min": [
        -0.9999845027923584,
        -0.99992513656616211,
        -0.99999678134918213
      ],
      "type": "VEC3"
    },
    {
      "bufferView": 3,
      "byteOffset": 1048512,
      "componentType": 5126,
      "count": 16085,
      "max": [
        0.99967533349990845,
        0.99949151277542114,
        0.79068702459335327,
        1
      ],
      "min": [
        -0.99990779161453247,
        -0.99996852874755859,
        -0.99998801946640015,
        -1
      ],
      "type": "VEC4"
    },
    {
      "bufferView": 1,
      "byteOffset": 524256,
      "componentType": 5126,
      "count": 16085,
      "max": [
        0.92688500881195068,
        0.9458879828453064
      ],
      "min": [
        0.056164000183343887,
        0.1153160035610199
      ],
      "type": "VEC2"
    },
    {
      "bufferView": 0,
      "byteOffset": 1495704,
      "componentType": 5125,
      "count": 76074,
      "max": [
        16084
      ],
      "min": [
        0
      ],
      "type": "SCALAR"
    }
  ],
  "asset": {
    "extras": {
      "author": "danderson4 (https://sketchfab.com/danderson4)",
      "license": "CC-BY-NC-4.0 (http://creativecommons.org/licenses/by-nc/4.0/)",
      "source": "https://sketchfab.com/3d-models/anthropoid-coffin-of-noub-3a697c9eacaf4bd6a2420695a2f44ed1",
      "title": "Anthropoid Coffin of Noub"
    },
    "generator": "Sketchfab-4.61.0",
    "version": "2.0"
  },
  "bufferViews": [
    {
      "buffer": 0,
      "byteLength": 1800000,
      "byteOffset": 0,
      "name": "floatBufferViews",
      "target": 34963
    },
    {
      "buffer": 0,
      "byteLength": 652936,
      "byteOffset": 1800000,
      "byteStride": 8,
      "name": "floatBufferViews",
      "target": 34962
    },
    {
      "buffer": 0,
      "byteLength": 1958808,
      "byteOffset": 2452936,
      "byteStride": 12,
      "name": "floatBufferViews",
      "target": 34962
    },
    {
      "buffer": 0,
      "byteLength": 1305872,
      "byteOffset": 4411744,
      "byteStride": 16,
      "name": "floatBufferViews",
      "target": 34962
    }
  ],
  "buffers": [
    {
      "byteLength": 5717616,
      "uri": "scene.bin"
    }
  ],
  "images": [
    {
      "uri": "textures/CairoCoffinDecimatd.1001_baseColor.jpeg"
    }
  ],
  "materials": [
    {
      "doubleSided": true,
      "emissiveFactor": [
        0,
        0,
        0
      ],
      "name": "CairoCoffinDecimatd.1001",
      "pbrMetallicRoughness": {
        "baseColorFactor": [
          1,
          1,
          1,
          1
        ],
        "baseColorTexture": {
          "index": 0,
          "texCoord": 0
        },
        "metallicFactor": 0,
        "roughnessFactor": 0.59999999999999998
      }
    }
  ],
  "meshes": [
    {
      "primitives": [
        {
          "attributes": {
            "NORMAL": 1,
            "POSITION": 0,
            "TANGENT": 2,
            "TEXCOORD_0": 3
          },
          "indices": 4,
          "material": 0,
          "mode": 4
        }
      ]
    },
    {
      "primitives": [
        {
          "attributes": {
            "NORMAL": 6,
            "POSITION": 5,
            "TANGENT": 7,
            "TEXCOORD_0": 8
          },
          "indices": 9,
          "material": 0,
          "mode": 4
        }
      ]
    }
  ],
  "nodes": [
    {
      "children": [
        1
      ],
      "name": "RootNode (gltf orientation matrix)",
      "rotation": [
        -0.70710678118654746,
        -0,
        -0,
        0.70710678118654757
      ]
    },
    {
      "children": [
        2
      ],
      "matrix": [
        -1,
        0,
        0,
        0,
        0,
        0,
        -1,
        0,
        0,
        -1,
        0,
        0,
        -5.5874619483947754,
        9.1683378219604492,
        9.1683378219604492,
        1
      ],
      "name": "RootNode (model correction matrix)"
    },
    {
      "children": [
        3,
        4
      ],
      "name": "CairoCoffinDecimatd.obj.cleaner.materialmerger.gles"
    },
    {
      "mesh": 0,
      "name": ""
    },
    {
      "mesh": 1,
      "name": ""
    }
  ],
  "samplers": [
    {
      "magFilter": 9729,
      "minFilter": 9987,
      "wrapS": 10497,
      "wrapT": 10497
    }
  ],
  "scene": 0,
  "scenes": [
    {
      "name": "OSG_Scene",
      "nodes": [
        0
      ]
    }
  ],
  "textures": [
    {
      "sampler": 0,
      "source": 0
    }
  ]
}

