{
  "accessors": [
    {
      "bufferView": 2,
      "componentType": 5126,
      "count": 65532,
      "max": [
        9.8175640106201172,
        10.585856437683105,
        -4.6450462341308594
      ],
      "min": [
        -7.4467759132385254,
        3.1850869655609131,
        -4.7859201431274414
      ],
      "type": "VEC3"
    },
    {
      "bufferView": 2,
      "byteOffset": 786384,
      "componentType": 5126,
      "count": 65532,
      "max": [
        0.59999692440032959,
        0.99989259243011475,
        0.92688417434692383
      ],
      "min": [
        -0.86187738180160522,
        -0.99996137619018555,
        -0.99999988079071045
      ],
      "type": "VEC3"
    },
    {
      "bufferView": 1,
      "componentType": 5126,
      "count": 65532,
      "max": [
        0.98477399349212646,
        0.91389298439025879
      ],
      "min": [
        0.017077000811696053,
        0.00085999997099861503
      ],
      "type": "VEC2"
    },
    {
      "bufferView": 0,
      "componentType": 5125,
      "count": 343803,
      "max": [
        65531
      ],
      "min": [
        0
      ],
      "type": "SCALAR"
    },
    {
      "bufferView": 2,
      "byteOffset": 1572768,
      "componentType": 5126,
      "count": 65532,
      "max": [
        9.8180456161499023,
        10.580124855041504,
        -4.7025690078735352
      ],
      "min": [
        6.9171380996704102,
        3.1845920085906982,
        -4.8458538055419922
      ],
      "type": "VEC3"
    },
    {
      "bufferView": 2,
      "byteOffset": 2359152,
      "componentType": 5126,
      "count": 65532,
      "max": [
        0.53279244899749756,
        0.51032716035842896,
        0.97322988510131836
      ],
      "min": [
        -0.91105377674102783,
        -0.75384408235549927,
        -1
      ],
      "type": "VEC3"
    },
    {
      "bufferView": 1,
      "byteOffset": 524256,
      "componentType": 5126,
      "count": 65532,
      "max": [
        0.74686902761459351,
        0.63901597261428833
      ],
      "min": [
        0.075521998107433319,
        0.0033140000887215137
      ],
      "type": "VEC2"
    },
    {
      "bufferView": 0,
      "byteOffset": 1375212,
      "componentType": 5125,
      "count": 348081,
      "max": [
        65531
      ],
      "min": [
        0
      ],
      "type": "SCALAR"
    },
    {
      "bufferView": 2,
      "byteOffset": 3145536,
      "componentType": 5126,
      "count": 65532,
      "max": [
        9.8180456161499023,
        10.5858154296875,
        -4.6460690498352051
      ],
      "min": [
        -7.3460488319396973,
        3.1845479011535645,
        -4.8543782234191895
      ],
      "type": "VEC3"
    },
    {
      "bufferView": 2,
      "byteOffset": 3931920,
      "componentType": 5126,
      "count": 65532,
      "max": [
        0.99971485137939453,
        0.99986934661865234,
        0.99956387281417847
      ],
      "min": [
        -0.99895888566970825,
        -0.99998301267623901,
        -1
      ],
      "type": "VEC3"
    },
    {
      "bufferView": 1,
      "byteOffset": 1048512,
      "componentType": 5126,
      "count": 65532,
      "max": [
        0.9833189845085144,
        0.9981529712677002
      ],
      "min": [
        0.0023469999432563782,
        0.0012090000091120601
      ],
      "type": "VEC2"
    },
    {
      "bufferView": 0,
      "byteOffset": 2767536,
      "componentType": 5125,
      "count": 288132,
      "max": [
        65531
      ],
      "min": [
        0
      ],
      "type": "SCALAR"
    },
    {
      "bufferView": 2,
      "byteOffset": 4718304,
      "componentType": 5126,
      "count": 65532,
      "max": [
        7.997704029083252,
        10.585696220397949,
        -4.6864299774169922
      ],
      "min": [
        2.8224730491638184,
        3.1848499774932861,
        -4.8173279762268066
      ],
      "type": "VEC3"
    },
    {
      "bufferView": 2,
      "byteOffset": 5504688,
      "componentType": 5126,
      "count": 65532,
      "max": [
        0.98023545742034912,
        0.99896878004074097,
        0.99996685981750488
      ],
      "min": [
        -0.9724993109703064,
        -0.98670035600662231,
        -1
      ],
      "type": "VEC3"
    },
    {
      "bufferView": 1,
      "byteOffset": 1572768,
      "componentType": 5126,
      "count": 65532,
      "max": [
        0.98460102081298828,
        0.99894297122955322
      ],
      "min": [
        0.0018289999570697546,
        0.0088790003210306168
      ],
      "type": "VEC2"
    },
    {
      "bufferView": 0,
      "byteOffset": 3920064,
      "componentType": 5125,
      "count": 335073,
      "max": [
        65531
      ],
      "min": [
        0
      ],
      "type": "SCALAR"
    },
    {
      "bufferView": 2,
      "byteOffset": 6291072,
      "componentType": 5126,
      "count": 65532,
      "max": [
        5.9924588203430176,
        10.585704803466797,
        -4.6667709350585938
      ],
      "min": [
        0.52373898029327393,
        3.1847081184387207,
        -4.8090882301330566
      ],
      "type": "VEC3"
    },
    {
      "bufferView": 2,
      "byteOffset": 7077456,
      "componentType": 5126,
      "count": 65532,
      "max": [
        0.97617876529693604,
        0.99994617700576782,
        0.99989920854568481
      ],
      "min": [
        -0.89850848913192749,
        -0.97380822896957397,
        -1
      ],
      "type": "VEC3"
    },
    {
      "bufferView": 1,
      "byteOffset": 2097024,
      "componentType": 5126,
      "count": 65532,
      "max": [
        0.98632800579071045,
        0.83633601665496826
      ],
      "min": [
        0.0041939998045563698,
        0.00056399998720735312
      ],
      "type": "VEC2"
    },
    {
      "bufferView": 0,
      "byteOffset": 5260356,
      "componentType": 5125,
      "count": 339909,
      "max": [
        65531
      ],
      "min": [
        0
      ],
      "type": "SCALAR"
    },
    {
      "bufferView": 2,
      "byteOffset": 7863840,
      "componentType": 5126,
      "count": 65532,
      "max": [
        3.3229260444641113,
        10.585831642150879,
        -4.6798610687255859
      ],
      "min": [
        -0.69456398487091064,
        3.1845970153808594,
        -4.8029241561889648
      ],
      "type": "VEC3"
    },
    {
      "bufferView": 2,
      "byteOffset": 8650224,
      "componentType": 5126,
      "count": 65532,
      "max": [
        0.87267553806304932,
        0.98522233963012695,
        0.99990057945251465
      ],
      "min": [
        -0.74892061948776245,
        -0.98174571990966797,
        -1
      ],
      "type": "VEC3"
    },
    {
      "bufferView": 1,
      "byteOffset": 2621280,
      "componentType": 5126,
      "count": 65532,
      "max": [
        0.95396900177001953,
        0.96773302555084229
      ],
      "min": [
        0.0080829998478293419,
        0.0012280000373721123
      ],
      "type": "VEC2"
    },
    {
      "bufferView": 0,
      "byteOffset": 6619992,
      "componentType": 5125,
      "count": 347061,
      "max": [
        65531
      ],
      "min": [
        0
      ],
      "type": "SCALAR"
    },
    {
      "bufferView": 2,
      "byteOffset": 9436608,
      "componentType": 5126,
      "count": 65532,
      "max": [
        1.9677360057830811,
        10.585341453552246,
        -4.6535840034484863
      ],
      "min": [
        -7.4462251663208008,
        3.1850869655609131,
        -4.7928519248962402
      ],
      "type": "VEC3"
    },
    {
      "bufferView": 2,
      "byteOffset": 10222992,
      "componentType": 5126,
      "count": 65532,
      "max": [
        0.77900654077529907,
        0.7455894947052002,
        0.99967765808105469
      ],
      "min": [
        -0.65236616134643555,
        -0.73524171113967896,
        -1
      ],
      "type": "VEC3"
    },
    {
      "bufferView": 1,
      "byteOffset": 3145536,
      "componentType": 5126,
      "count": 65532,
      "max": [
        0.87419897317886353,
        0.95974701642990112
      ],
      "min": [
        0.021306000649929047,
        0.00086799997370690107
      ],
      "type": "VEC2"
    },
    {
      "bufferView": 0,
      "byteOffset": 8008236,
      "componentType": 5125,
      "count": 346083,
      "max": [
        65531
      ],
      "min": [
        0
      ],
      "type": "SCALAR"
    },
    {
      "bufferView": 2,
      "byteOffset": 11009376,
      "componentType": 5126,
      "count": 65532,
      "max": [
        -1.1626700162887573,
        10.585787773132324,
        -4.6493349075317383
      ],
      "min": [
        -7.4463281631469727,
        3.1847250461578369,
        -4.7732272148132324
      ],
      "type": "VEC3"
    },
    {
      "bufferView": 2,
      "byteOffset": 11795760,
      "componentType": 5126,
      "count": 65532,
      "max": [
        0.98600190877914429,
        0.99777305126190186,
        0.99996083974838257
      ],
      "min": [
        -0.87375891208648682,
        -0.99995702505111694,
        -1
      ],
      "type": "VEC3"
    },
    {
      "bufferView": 1,
      "byteOffset": 3669792,
      "componentType": 5126,
      "count": 65532,
      "max": [
        0.93189001083374023,
        0.96802002191543579
      ],
      "min": [
        0.015970999374985695,
        6.8000001192558557e-05
      ],
      "type": "VEC2"
    },
    {
      "bufferView": 0,
      "byteOffset": 9392568,
      "componentType": 5125,
      "count": 295179,
      "max": [
        65531
      ],
      "min": [
        0
      ],
      "type": "SCALAR"
    },
    {
      "bufferView": 2,
      "byteOffset": 12582144,
      "componentType": 5126,
      "count": 65532,
      "max": [
        1.3355720043182373,
        10.585788726806641,
        -4.6582698822021484
      ],
      "min": [
        -2.6637229919433594,
        3.1846868991851807,
        -4.7889819145202637
      ],
      "type": "VEC3"
    },
    {
      "bufferView": 2,
      "byteOffset": 13368528,
      "componentType": 5126,
      "count": 65532,
      "max": [
        0.99552404880523682,
        0.99994057416915894,
        0.99996942281723022
      ],
      "min": [
        -0.97260767221450806,
        -0.99596250057220459,
        -1
      ],
      "type": "VEC3"
    },
    {
      "bufferView": 1,
      "byteOffset": 4194048,
      "componentType": 5126,
      "count": 65532,
      "max": [
        0.98704797029495239,
        0.99997997283935547
      ],
      "min": [
        3.9999999899009708e-06,
        0.0002789999998640269
      ],
      "type": "VEC2"
    },
    {
      "bufferView": 0,
      "byteOffset": 10573284,
      "componentType": 5125,
      "count": 333603,
      "max": [
        65531
      ],
      "min": [
        0
      ],
      "type": "SCALAR"
    },
    {
      "bufferView": 2,
      "byteOffset": 14154912,
      "componentType": 5126,
      "count": 8541,
      "max": [
        1.8325389623641968,
        10.585389137268066,
        -4.6761918067932129
      ],
      "min": [
        0.77596402168273926,
        3.1850869655609131,
        -4.7938342094421387
      ],
      "type": "VEC3"
    },
    {
      "bufferView": 2,
      "byteOffset": 14257404,
      "componentType": 5126,
      "count": 8541,
      "max": [
        0.8236040472984314,
        0.98169177770614624,
        0.99963283538818359
      ],
      "min": [
        -0.79031473398208618,
        -0.95615297555923462,
        -1
      ],
      "type": "VEC3"
    },
    {
      "bufferView": 1,
      "byteOffset": 4718304,
      "componentType": 5126,
      "count": 8541,
      "max": [
        0.87270897626876831,
        0.9483870267868042
      ],
      "min": [
        0.19318400323390961,
        0.24498000741004944
      ],
      "type": "VEC2"
    },
    {
      "bufferView": 0,
      "byteOffset": 11907696,
      "componentType": 5125,
      "count": 23010,
      "max": [
        8540
      ],
      "min": [
        0
      ],
      "type": "SCALAR"
    }
  ],
  "asset": {
    "extras": {
      "author": "danderson4 (https://sketchfab.com/danderson4)",
      "license": "CC-BY-NC-4.0 (http://creativecommons.org/licenses/by-nc/4.0/)",
      "source": "https://sketchfab.com/3d-models/tomb-of-mereruka-chamber-a13-north-wall-5bdf831774b643c8b6f750289562e7c8",
      "title": "Tomb of Mereruka, Chamber A13, North Wall"
    },
    "generator": "Sketchfab-10.0.0",
    "version": "2.0"
  },
  "bufferViews": [
    {
      "buffer": 0,
      "byteLength": 11999736,
      "byteOffset": 0,
      "name": "floatBufferViews",
      "target": 34963
    },
    {
      "buffer": 0,
      "byteLength": 4786632,
      "byteOffset": 11999736,
      "byteStride": 8,
      "name": "floatBufferViews",
      "target": 34962
    },
    {
      "buffer": 0,
      "byteLength": 14359896,
      "byteOffset": 16786368,
      "byteStride": 12,
      "name": "floatBufferViews",
      "target": 34962
    }
  ],
  "buffers": [
    {
      "byteLength": 31146264,
      "uri": "scene.bin"
    }
  ],
  "images": [
    {
      "uri": "textures/Mereruka_A13_WallToLeftOfStatue_baseColor.jpeg"
    }
  ],
  "materials": [
    {
      "doubleSided": true,
      "emissiveFactor": [
        0,
        0,
        0
      ],
      "name": "Mereruka_A13_WallToLeftOfStatue",
      "pbrMetallicRoughness": {
        "baseColorFactor": [
          1,
          1,
          1,
          1
        ],
        "baseColorTexture": {
          "index": 0,
          "texCoord": 0
        },
        "metallicFactor": 0,
        "roughnessFactor": 1
      }
    }
  ],
  "meshes": [
    {
      "primitives": [
        {
          "attributes": {
            "NORMAL": 1,
            "POSITION": 0,
            "TEXCOORD_0": 2
          },
          "indices": 3,
          "material": 0,
          "mode": 4
        }
      ]
    },
    {
      "primitives": [
        {
          "attributes": {
            "NORMAL": 5,
            "POSITION": 4,
            "TEXCOORD_0": 6
          },
          "indices": 7,
          "material": 0,
          "mode": 4
        }
      ]
    },
    {
      "primitives": [
        {
          "attributes": {
            "NORMAL": 9,
            "POSITION": 8,
            "TEXCOORD_0": 10
          },
          "indices": 11,
          "material": 0,
          "mode": 4
        }
      ]
    },
    {
      "primitives": [
        {
          "attributes": {
            "NORMAL": 13,
            "POSITION": 12,
            "TEXCOORD_0": 14
          },
          "indices": 15,
          "material": 0,
          "mode": 4
        }
      ]
    },
    {
      "primitives": [
        {
          "attributes": {
            "NORMAL": 17,
            "POSITION": 16,
            "TEXCOORD_0": 18
          },
          "indices": 19,
          "material": 0,
          "mode": 4
        }
      ]
    },
    {
      "primitives": [
        {
          "attributes": {
            "NORMAL": 21,
            "POSITION": 20,
            "TEXCOORD_0": 22
          },
          "indices": 23,
          "material": 0,
          "mode": 4
        }
      ]
    },
    {
      "primitives": [
        {
          "attributes": {
            "NORMAL": 25,
            "POSITION": 24,
            "TEXCOORD_0": 26
          },
          "indices": 27,
          "material": 0,
          "mode": 4
        }
      ]
    },
    {
      "primitives": [
        {
          "attributes": {
            "NORMAL": 29,
            "POSITION": 28,
            "TEXCOORD_0": 30
          },
          "indices": 31,
          "material": 0,
          "mode": 4
        }
      ]
    },
    {
      "primitives": [
        {
          "attributes": {
            "NORMAL": 33,
            "POSITION": 32,
            "TEXCOORD_0": 34
          },
          "indices": 35,
          "material": 0,
          "mode": 4
        }
      ]
    },
    {
      "primitives": [
        {
          "attributes": {
            "NORMAL": 37,
            "POSITION": 36,
            "TEXCOORD_0": 38
          },
          "indices": 39,
          "material": 0,
          "mode": 4
        }
      ]
    }
  ],
  "nodes": [
    {
      "children": [
        1
      ],
      "name": "RootNode (gltf orientation matrix)",
      "rotation": [
        -0.70710678118654746,
        -0,
        -0,
        0.70710678118654757
      ]
    },
    {
      "children": [
        2
      ],
      "matrix": [
        1,
        0,
        0,
        0,
        0,
        2.2204460492503131e-16,
        -1,
        0,
        0,
        1,
        2.2204460492503131e-16,
        0,
        0,
        11.634919166564941,
        2.1354911327362061,
        1
      ],
      "name": "RootNode (model correction matrix)"
    },
    {
      "children": [
        3,
        4,
        5,
        6,
        7,
        8,
        9,
        10,
        11,
        12
      ],
      "name": "Mereruka_A13_WallToLeftOfStatue.obj.cleaner.materialmerger.gles"
    },
    {
      "mesh": 0,
      "name": ""
    },
    {
      "mesh": 1,
      "name": ""
    },
    {
      "mesh": 2,
      "name": ""
    },
    {
      "mesh": 3,
      "name": ""
    },
    {
      "mesh": 4,
      "name": ""
    },
    {
      "mesh": 5,
      "name": ""
    },
    {
      "mesh": 6,
      "name": ""
    },
    {
      "mesh": 7,
      "name": ""
    },
    {
      "mesh": 8,
      "name": ""
    },
    {
      "mesh": 9,
      "name": ""
    }
  ],
  "samplers": [
    {
      "magFilter": 9729,
      "minFilter": 9987,
      "wrapS": 10497,
      "wrapT": 10497
    }
  ],
  "scene": 0,
  "scenes": [
    {
      "name": "OSG_Scene",
      "nodes": [
        0
      ]
    }
  ],
  "textures": [
    {
      "sampler": 0,
      "source": 0
    }
  ]
}

