{
    "asset" : {
        "generator" : "Khronos glTF Blender I/O v1.3.48",
        "version" : "2.0"
    },
    "scene" : 0,
    "scenes" : [
        {
            "name" : "Scene",
            "nodes" : [
                0
            ]
        }
    ],
    "nodes" : [
        {
            "mesh" : 0,
            "name" : "Cube.005",
            "scale" : [
                1.8520973920822144,
                0.5332069993019104,
                0.06122186407446861
            ],
            "translation" : [
                0.005471020471304655,
                0.3355475962162018,
                -2.8915462493896484
            ]
        }
    ],
    "materials" : [
        {
            "doubleSided" : true,
            "emissiveFactor" : [
                0,
                0,
                0
            ],
            "name" : "Material",
            "pbrMetallicRoughness" : {
                "baseColorFactor" : [
                    0.800000011920929,
                    0.800000011920929,
                    0.800000011920929,
                    1
                ],
                "metallicFactor" : 0,
                "roughnessFactor" : 0.4000000059604645
            }
        },
        {
            "doubleSided" : true,
            "emissiveFactor" : [
                0,
                0,
                0
            ],
            "name" : "Material.001",
            "pbrMetallicRoughness" : {
                "baseColorFactor" : [
                    0.8000000715255737,
                    0,
                    0.0016335592372342944,
                    1
                ],
                "metallicFactor" : 0,
                "roughnessFactor" : 0.5
            }
        }
    ],
    "meshes" : [
        {
            "name" : "Cube.005",
            "primitives" : [
                {
                    "attributes" : {
                        "POSITION" : 0,
                        "NORMAL" : 1,
                        "TEXCOORD_0" : 2
                    },
                    "indices" : 3,
                    "material" : 0
                },
                {
                    "attributes" : {
                        "POSITION" : 4,
                        "NORMAL" : 5,
                        "TEXCOORD_0" : 6
                    },
                    "indices" : 7,
                    "material" : 1
                }
            ]
        }
    ],
    "accessors" : [
        {
            "bufferView" : 0,
            "componentType" : 5126,
            "count" : 552,
            "max" : [
                1.0034475326538086,
                1,
                213.33969116210938
            ],
            "min" : [
                -1.0184239149093628,
                -1.0370409488677979,
                -32.46099090576172
            ],
            "type" : "VEC3"
        },
        {
            "bufferView" : 1,
            "componentType" : 5126,
            "count" : 552,
            "type" : "VEC3"
        },
        {
            "bufferView" : 2,
            "componentType" : 5126,
            "count" : 552,
            "type" : "VEC2"
        },
        {
            "bufferView" : 3,
            "componentType" : 5123,
            "count" : 900,
            "type" : "SCALAR"
        },
        {
            "bufferView" : 4,
            "componentType" : 5126,
            "count" : 192,
            "max" : [
                0.2699265480041504,
                -0.2732972204685211,
                33.15831756591797
            ],
            "min" : [
                -0.32087576389312744,
                -1.0114251375198364,
                15.285236358642578
            ],
            "type" : "VEC3"
        },
        {
            "bufferView" : 5,
            "componentType" : 5126,
            "count" : 192,
            "type" : "VEC3"
        },
        {
            "bufferView" : 6,
            "componentType" : 5126,
            "count" : 192,
            "type" : "VEC2"
        },
        {
            "bufferView" : 7,
            "componentType" : 5123,
            "count" : 372,
            "type" : "SCALAR"
        }
    ],
    "bufferViews" : [
        {
            "buffer" : 0,
            "byteLength" : 6624,
            "byteOffset" : 0
        },
        {
            "buffer" : 0,
            "byteLength" : 6624,
            "byteOffset" : 6624
        },
        {
            "buffer" : 0,
            "byteLength" : 4416,
            "byteOffset" : 13248
        },
        {
            "buffer" : 0,
            "byteLength" : 1800,
            "byteOffset" : 17664
        },
        {
            "buffer" : 0,
            "byteLength" : 2304,
            "byteOffset" : 19464
        },
        {
            "buffer" : 0,
            "byteLength" : 2304,
            "byteOffset" : 21768
        },
        {
            "buffer" : 0,
            "byteLength" : 1536,
            "byteOffset" : 24072
        },
        {
            "buffer" : 0,
            "byteLength" : 744,
            "byteOffset" : 25608
        }
    ],
    "buffers" : [
        {
            "byteLength" : 26352,
            "uri" : "data:application/octet-stream;base64,"
        }
    ]
}
