{
  "accessors": [
    {
      "bufferView": 2,
      "componentType": 5126,
      "count": 19637,
      "max": [
        0.0781392827630043,
        0.5074184536933899,
        0.21808667480945587
      ],
      "min": [
        -0.028620287775993347,
        -0.2398887425661087,
        -0.2184910774230957
      ],
      "type": "VEC3"
    },
    {
      "bufferView": 2,
      "byteOffset": 235644,
      "componentType": 5126,
      "count": 19637,
      "max": [
        0.4134407937526703,
        0.9828552603721619,
        0.9999114274978638
      ],
      "min": [
        -0.9999995231628418,
        -0.9997992515563965,
        -0.9998939037322998
      ],
      "type": "VEC3"
    },
    {
      "bufferView": 1,
      "componentType": 5126,
      "count": 19637,
      "max": [
        0.9908213019371033,
        0.9999992251396179
      ],
      "min": [
        4.828820965485647e-05,
        0.0006225109100341797
      ],
      "type": "VEC2"
    },
    {
      "bufferView": 1,
      "byteOffset": 157096,
      "componentType": 5126,
      "count": 19637,
      "max": [
        0.9908213019371033,
        0.9999992251396179
      ],
      "min": [
        4.828820965485647e-05,
        0.0006225109100341797
      ],
      "type": "VEC2"
    },
    {
      "bufferView": 1,
      "byteOffset": 314192,
      "componentType": 5126,
      "count": 19637,
      "max": [
        0.9908213019371033,
        0.9999992251396179
      ],
      "min": [
        4.828820965485647e-05,
        0.0006225109100341797
      ],
      "type": "VEC2"
    },
    {
      "bufferView": 0,
      "componentType": 5125,
      "count": 106509,
      "type": "SCALAR"
    }
  ],
  "asset": {
    "extras": {
      "author": "alexdelker (https://sketchfab.com/alexdelker)",
      "license": "CC-BY-4.0 (http://creativecommons.org/licenses/by/4.0/)",
      "source": "https://sketchfab.com/3d-models/323-stele-of-se-ankhy-and-ankhu-b796dde3659247c38084e4ca65c54af9",
      "title": "323: Stele of Se-ankhy and Ankhu"
    },
    "generator": "Sketchfab-12.6.0",
    "version": "2.0"
  },
  "bufferViews": [
    {
      "buffer": 0,
      "byteLength": 426036,
      "name": "floatBufferViews",
      "target": 34963
    },
    {
      "buffer": 0,
      "byteLength": 471288,
      "byteOffset": 426036,
      "byteStride": 8,
      "name": "floatBufferViews",
      "target": 34962
    },
    {
      "buffer": 0,
      "byteLength": 471288,
      "byteOffset": 897324,
      "byteStride": 12,
      "name": "floatBufferViews",
      "target": 34962
    }
  ],
  "buffers": [
    {
      "byteLength": 1368612,
      "uri": "scene.bin"
    }
  ],
  "extensionsUsed": [
    "KHR_materials_unlit"
  ],
  "images": [
    {
      "uri": "textures/Material_0_baseColor.jpeg"
    }
  ],
  "materials": [
    {
      "extensions": {
        "KHR_materials_unlit": {}
      },
      "name": "Material_0",
      "pbrMetallicRoughness": {
        "baseColorTexture": {
          "index": 0
        },
        "metallicFactor": 0.0
      }
    }
  ],
  "meshes": [
    {
      "name": "Object_0",
      "primitives": [
        {
          "attributes": {
            "NORMAL": 1,
            "POSITION": 0,
            "TEXCOORD_0": 2,
            "TEXCOORD_1": 3,
            "TEXCOORD_2": 4
          },
          "indices": 5,
          "material": 0,
          "mode": 4
        }
      ]
    }
  ],
  "nodes": [
    {
      "children": [
        1
      ],
      "matrix": [
        1.0,
        0.0,
        0.0,
        0.0,
        0.0,
        2.220446049250313e-16,
        -1.0,
        0.0,
        0.0,
        1.0,
        2.220446049250313e-16,
        0.0,
        0.0,
        0.0,
        0.0,
        1.0
      ],
      "name": "Sketchfab_model"
    },
    {
      "children": [
        2
      ],
      "name": "root"
    },
    {
      "children": [
        3
      ],
      "matrix": [
        1.0,
        0.0,
        0.0,
        0.0,
        0.0,
        2.220446049250313e-16,
        1.0,
        0.0,
        0.0,
        -1.0,
        2.220446049250313e-16,
        0.0,
        0.0,
        0.0,
        0.0,
        1.0
      ],
      "name": "GLTF_SceneRootNode"
    },
    {
      "children": [
        4
      ],
      "name": "Mesh_0_0"
    },
    {
      "mesh": 0,
      "name": "Object_4"
    }
  ],
  "samplers": [
    {
      "magFilter": 9729,
      "minFilter": 9987,
      "wrapS": 10497,
      "wrapT": 10497
    }
  ],
  "scene": 0,
  "scenes": [
    {
      "name": "Sketchfab_Scene",
      "nodes": [
        0
      ]
    }
  ],
  "textures": [
    {
      "sampler": 0,
      "source": 0
    }
  ]
}
