{
  "accessors": [
    {
      "bufferView": 2,
      "componentType": 5126,
      "count": 43707,
      "max": [
        0.2695777416229248,
        1.235470175743103,
        0.5528228282928467
      ],
      "min": [
        -0.012551099061965942,
        -0.732187032699585,
        -0.5219820737838745
      ],
      "type": "VEC3"
    },
    {
      "bufferView": 2,
      "byteOffset": 524484,
      "componentType": 5126,
      "count": 43707,
      "max": [
        0.9999944567680359,
        0.9999987483024597,
        0.9999994039535522
      ],
      "min": [
        -1.0,
        -0.9999943971633911,
        -0.9999995231628418
      ],
      "type": "VEC3"
    },
    {
      "bufferView": 1,
      "componentType": 5126,
      "count": 43707,
      "max": [
        0.9965910315513611,
        0.9983770251274109
      ],
      "min": [
        0.00010159859084524214,
        0.00010266175377182662
      ],
      "type": "VEC2"
    },
    {
      "bufferView": 1,
      "byteOffset": 349656,
      "componentType": 5126,
      "count": 43707,
      "max": [
        0.9965910315513611,
        0.9983770251274109
      ],
      "min": [
        0.00010159859084524214,
        0.00010266175377182662
      ],
      "type": "VEC2"
    },
    {
      "bufferView": 1,
      "byteOffset": 699312,
      "componentType": 5126,
      "count": 43707,
      "max": [
        0.9965910315513611,
        0.9983770251274109
      ],
      "min": [
        0.00010159859084524214,
        0.00010266175377182662
      ],
      "type": "VEC2"
    },
    {
      "bufferView": 1,
      "byteOffset": 1048968,
      "componentType": 5126,
      "count": 43707,
      "max": [
        0.9965910315513611,
        0.9983770251274109
      ],
      "min": [
        0.00010159859084524214,
        0.00010266175377182662
      ],
      "type": "VEC2"
    },
    {
      "bufferView": 1,
      "byteOffset": 1398624,
      "componentType": 5126,
      "count": 43707,
      "max": [
        0.9965910315513611,
        0.9983770251274109
      ],
      "min": [
        0.00010159859084524214,
        0.00010266175377182662
      ],
      "type": "VEC2"
    },
    {
      "bufferView": 0,
      "componentType": 5125,
      "count": 225018,
      "type": "SCALAR"
    }
  ],
  "asset": {
    "extras": {
      "author": "alban (https://sketchfab.com/alban)",
      "license": "CC-BY-4.0 (http://creativecommons.org/licenses/by/4.0/)",
      "source": "https://sketchfab.com/3d-models/field-painting-by-jasper-johns-65e260be1b304ae5843ad58f4e7c32b2",
      "title": "Field Painting by Jasper Johns"
    },
    "generator": "Sketchfab-12.2.0",
    "version": "2.0"
  },
  "bufferViews": [
    {
      "buffer": 0,
      "byteLength": 900072,
      "name": "floatBufferViews",
      "target": 34963
    },
    {
      "buffer": 0,
      "byteLength": 1748280,
      "byteOffset": 900072,
      "byteStride": 8,
      "name": "floatBufferViews",
      "target": 34962
    },
    {
      "buffer": 0,
      "byteLength": 1048968,
      "byteOffset": 2648352,
      "byteStride": 12,
      "name": "floatBufferViews",
      "target": 34962
    }
  ],
  "buffers": [
    {
      "byteLength": 3697320,
      "uri": "scene.bin"
    }
  ],
  "extensionsUsed": [
    "KHR_materials_unlit"
  ],
  "images": [
    {
      "uri": "textures/material_0_baseColor.jpeg"
    }
  ],
  "materials": [
    {
      "doubleSided": true,
      "extensions": {
        "KHR_materials_unlit": {}
      },
      "name": "material_0",
      "pbrMetallicRoughness": {
        "baseColorTexture": {
          "index": 0
        },
        "metallicFactor": 0.0
      }
    }
  ],
  "meshes": [
    {
      "name": "Object_0",
      "primitives": [
        {
          "attributes": {
            "NORMAL": 1,
            "POSITION": 0,
            "TEXCOORD_0": 2,
            "TEXCOORD_1": 3,
            "TEXCOORD_2": 4,
            "TEXCOORD_3": 5,
            "TEXCOORD_4": 6
          },
          "indices": 7,
          "material": 0,
          "mode": 4
        }
      ]
    }
  ],
  "nodes": [
    {
      "children": [
        1
      ],
      "matrix": [
        1.0,
        0.0,
        0.0,
        0.0,
        0.0,
        2.220446049250313e-16,
        -1.0,
        0.0,
        0.0,
        1.0,
        2.220446049250313e-16,
        0.0,
        0.0,
        0.0,
        0.0,
        1.0
      ],
      "name": "Sketchfab_model"
    },
    {
      "children": [
        2
      ],
      "name": "root"
    },
    {
      "children": [
        3
      ],
      "matrix": [
        1.0,
        0.0,
        0.0,
        0.0,
        0.0,
        2.220446049250313e-16,
        1.0,
        0.0,
        0.0,
        -1.0,
        2.220446049250313e-16,
        0.0,
        0.0,
        0.0,
        0.0,
        1.0
      ],
      "name": "GLTF_SceneRootNode"
    },
    {
      "children": [
        4
      ],
      "name": "_0"
    },
    {
      "mesh": 0,
      "name": "Object_4"
    }
  ],
  "samplers": [
    {
      "magFilter": 9729,
      "minFilter": 9987,
      "wrapS": 10497,
      "wrapT": 10497
    }
  ],
  "scene": 0,
  "scenes": [
    {
      "name": "Sketchfab_Scene",
      "nodes": [
        0
      ]
    }
  ],
  "textures": [
    {
      "sampler": 0,
      "source": 0
    }
  ]
}
