{
  "accessors": [
    {
      "bufferView": 2,
      "componentType": 5126,
      "count": 24,
      "max": [
        40.19049835205078,
        35.114200592041016,
        -208.57899475097656
      ],
      "min": [
        -15.1628999710083,
        -20.664499282836914,
        -218.30099487304688
      ],
      "type": "VEC3"
    },
    {
      "bufferView": 2,
      "byteOffset": 288,
      "componentType": 5126,
      "count": 24,
      "max": [
        0.15038396418094635,
        0.08682407438755035,
        -0.9848077893257141
      ],
      "min": [
        0.15038396418094635,
        0.08682407438755035,
        -0.9848077893257141
      ],
      "type": "VEC3"
    },
    {
      "bufferView": 1,
      "componentType": 5126,
      "count": 24,
      "max": [
        -0.019854899495840073,
        2.2242400646209717
      ],
      "min": [
        -2.2242400646209717,
        0.019854899495840073
      ],
      "type": "VEC2"
    },
    {
      "bufferView": 0,
      "componentType": 5125,
      "count": 66,
      "type": "SCALAR"
    },
    {
      "bufferView": 2,
      "byteOffset": 576,
      "componentType": 5126,
      "count": 73,
      "max": [
        44.70199966430664,
        37.71889877319336,
        -208.57899475097656
      ],
      "min": [
        -15.1628999710083,
        -20.664499282836914,
        -247.8459930419922
      ],
      "type": "VEC3"
    },
    {
      "bufferView": 2,
      "byteOffset": 1452,
      "componentType": 5126,
      "count": 73,
      "max": [
        0.9886058568954468,
        0.9962019920349121,
        0.173647940158844
      ],
      "min": [
        -0.9886058568954468,
        -0.9962019920349121,
        -0.173647940158844
      ],
      "type": "VEC3"
    },
    {
      "bufferView": 1,
      "byteOffset": 192,
      "componentType": 5126,
      "count": 73,
      "max": [
        1.7313200235366821,
        0.2952759861946106
      ],
      "min": [
        -6.439290154694119e-15,
        -2.018720070664018e-14
      ],
      "type": "VEC2"
    },
    {
      "bufferView": 0,
      "byteOffset": 264,
      "componentType": 5125,
      "count": 144,
      "type": "SCALAR"
    },
    {
      "bufferView": 2,
      "byteOffset": 2328,
      "componentType": 5126,
      "count": 834,
      "max": [
        45.20050048828125,
        38.22129821777344,
        0.0
      ],
      "min": [
        -28.5,
        -28.5,
        -247.93299865722656
      ],
      "type": "VEC3"
    },
    {
      "bufferView": 2,
      "byteOffset": 12336,
      "componentType": 5126,
      "count": 834,
      "max": [
        1.0,
        1.0,
        1.0
      ],
      "min": [
        -1.0,
        -1.0,
        -1.0
      ],
      "type": "VEC3"
    },
    {
      "bufferView": 1,
      "byteOffset": 776,
      "componentType": 5126,
      "count": 834,
      "max": [
        2.2440900802612305,
        6.062990188598633
      ],
      "min": [
        -2.2440900802612305,
        -1.3450900316238403
      ],
      "type": "VEC2"
    },
    {
      "bufferView": 0,
      "byteOffset": 840,
      "componentType": 5125,
      "count": 1644,
      "type": "SCALAR"
    }
  ],
  "asset": {
    "extras": {
      "author": "AVillage (https://sketchfab.com/avillage)",
      "license": "CC-BY-4.0 (http://creativecommons.org/licenses/by/4.0/)",
      "source": "https://sketchfab.com/3d-models/light-orbit-2e457e53a2b64f6e82901b0b3659445d",
      "title": "Light ORBIT"
    },
    "generator": "Sketchfab-10.62.0",
    "version": "2.0"
  },
  "bufferViews": [
    {
      "buffer": 0,
      "byteLength": 7416,
      "name": "floatBufferViews",
      "target": 34963
    },
    {
      "buffer": 0,
      "byteLength": 7448,
      "byteOffset": 7416,
      "byteStride": 8,
      "name": "floatBufferViews",
      "target": 34962
    },
    {
      "buffer": 0,
      "byteLength": 22344,
      "byteOffset": 14864,
      "byteStride": 12,
      "name": "floatBufferViews",
      "target": 34962
    }
  ],
  "buffers": [
    {
      "byteLength": 37208,
      "uri": "scene.bin"
    }
  ],
  "materials": [
    {
      "doubleSided": true,
      "emissiveFactor": [
        1.0,
        1.0,
        1.0
      ],
      "name": "M_00_Emissive_01",
      "pbrMetallicRoughness": {
        "baseColorFactor": [
          1.0,
          0.956863,
          0.698039,
          1.0
        ],
        "metallicFactor": 0.0
      }
    },
    {
      "doubleSided": true,
      "name": "M_00_Gold",
      "pbrMetallicRoughness": {
        "baseColorFactor": [
          0.7450979999999999,
          0.619608,
          0.32941200000000015,
          1.0
        ],
        "metallicFactor": 0.0,
        "roughnessFactor": 0.26866917169800997
      }
    },
    {
      "doubleSided": true,
      "name": "M_00_Plastic_Black_01",
      "pbrMetallicRoughness": {
        "baseColorFactor": [
          0.094118,
          0.094118,
          0.094118,
          1.0
        ],
        "metallicFactor": 0.0,
        "roughnessFactor": 0.28082951802467326
      }
    }
  ],
  "meshes": [
    {
      "name": "Object_0",
      "primitives": [
        {
          "attributes": {
            "NORMAL": 1,
            "POSITION": 0,
            "TEXCOORD_0": 2
          },
          "indices": 3,
          "material": 0,
          "mode": 4
        }
      ]
    },
    {
      "name": "Object_1",
      "primitives": [
        {
          "attributes": {
            "NORMAL": 5,
            "POSITION": 4,
            "TEXCOORD_0": 6
          },
          "indices": 7,
          "material": 1,
          "mode": 4
        }
      ]
    },
    {
      "name": "Object_2",
      "primitives": [
        {
          "attributes": {
            "NORMAL": 9,
            "POSITION": 8,
            "TEXCOORD_0": 10
          },
          "indices": 11,
          "material": 2,
          "mode": 4
        }
      ]
    }
  ],
  "nodes": [
    {
      "children": [
        1
      ],
      "matrix": [
        1.0,
        0.0,
        0.0,
        0.0,
        0.0,
        2.220446049250313e-16,
        -1.0,
        0.0,
        0.0,
        1.0,
        2.220446049250313e-16,
        0.0,
        0.0,
        0.0,
        0.0,
        1.0
      ],
      "name": "Sketchfab_model"
    },
    {
      "children": [
        2,
        3,
        4
      ],
      "name": "Light_ORBIT_02.obj.cleaner.materialmerger.gles"
    },
    {
      "mesh": 0,
      "name": "Object_2"
    },
    {
      "mesh": 1,
      "name": "Object_3"
    },
    {
      "mesh": 2,
      "name": "Object_4"
    }
  ],
  "scene": 0,
  "scenes": [
    {
      "name": "Sketchfab_Scene",
      "nodes": [
        0
      ]
    }
  ]
}
