{
  "accessors": [
    {
      "bufferView": 2,
      "componentType": 5126,
      "count": 17152,
      "max": [
        1,
        0.62393057346343994,
        0.40222170948982239
      ],
      "min": [
        -1,
        -0.62393063306808472,
        -0.40222173929214478
      ],
      "type": "VEC3"
    },
    {
      "bufferView": 2,
      "byteOffset": 205824,
      "componentType": 5126,
      "count": 17152,
      "max": [
        1,
        1,
        1
      ],
      "min": [
        -1,
        -1,
        -1
      ],
      "type": "VEC3"
    },
    {
      "bufferView": 3,
      "componentType": 5126,
      "count": 17152,
      "max": [
        1,
        1,
        1,
        1
      ],
      "min": [
        -1,
        -1,
        -1,
        -1
      ],
      "type": "VEC4"
    },
    {
      "bufferView": 1,
      "componentType": 5126,
      "count": 17152,
      "max": [
        0.99459999799728394,
        0.99279999732971191
      ],
      "min": [
        0.011599999852478504,
        0.0052000284194946289
      ],
      "type": "VEC2"
    },
    {
      "bufferView": 1,
      "byteOffset": 137216,
      "componentType": 5126,
      "count": 17152,
      "max": [
        0.99459999799728394,
        0.99279999732971191
      ],
      "min": [
        0.011599999852478504,
        0.0052000284194946289
      ],
      "type": "VEC2"
    },
    {
      "bufferView": 1,
      "byteOffset": 274432,
      "componentType": 5126,
      "count": 17152,
      "max": [
        0.99459999799728394,
        0.99279999732971191
      ],
      "min": [
        0.011599999852478504,
        0.0052000284194946289
      ],
      "type": "VEC2"
    },
    {
      "bufferView": 1,
      "byteOffset": 411648,
      "componentType": 5126,
      "count": 17152,
      "max": [
        0.99459999799728394,
        0.99279999732971191
      ],
      "min": [
        0.011599999852478504,
        0.0052000284194946289
      ],
      "type": "VEC2"
    },
    {
      "bufferView": 1,
      "byteOffset": 548864,
      "componentType": 5126,
      "count": 17152,
      "max": [
        0.99459999799728394,
        0.99279999732971191
      ],
      "min": [
        0.011599999852478504,
        0.0052000284194946289
      ],
      "type": "VEC2"
    },
    {
      "bufferView": 0,
      "componentType": 5125,
      "count": 64665,
      "max": [
        17151
      ],
      "min": [
        0
      ],
      "type": "SCALAR"
    }
  ],
  "asset": {
    "extras": {
      "author": "D.art (https://sketchfab.com/D.art)",
      "license": "CC-BY-NC-4.0 (http://creativecommons.org/licenses/by-nc/4.0/)",
      "source": "https://sketchfab.com/3d-models/retro-piano-fd4971cd71564319aa2132266d208185",
      "title": "Retro piano"
    },
    "generator": "Sketchfab-9.67.0",
    "version": "2.0"
  },
  "bufferViews": [
    {
      "buffer": 0,
      "byteLength": 258660,
      "byteOffset": 0,
      "name": "floatBufferViews",
      "target": 34963
    },
    {
      "buffer": 0,
      "byteLength": 686080,
      "byteOffset": 258660,
      "byteStride": 8,
      "name": "floatBufferViews",
      "target": 34962
    },
    {
      "buffer": 0,
      "byteLength": 411648,
      "byteOffset": 944740,
      "byteStride": 12,
      "name": "floatBufferViews",
      "target": 34962
    },
    {
      "buffer": 0,
      "byteLength": 274432,
      "byteOffset": 1356388,
      "byteStride": 16,
      "name": "floatBufferViews",
      "target": 34962
    }
  ],
  "buffers": [
    {
      "byteLength": 1630820,
      "uri": "scene.bin"
    }
  ],
  "images": [
    {
      "uri": "textures/gangqin_baseColor.png"
    },
    {
      "uri": "textures/gangqin_metallicRoughness.png"
    },
    {
      "uri": "textures/gangqin_normal.png"
    }
  ],
  "materials": [
    {
      "doubleSided": false,
      "emissiveFactor": [
        0,
        0,
        0
      ],
      "name": "gangqin",
      "normalTexture": {
        "index": 2,
        "scale": 1,
        "texCoord": 2
      },
      "occlusionTexture": {
        "index": 1,
        "strength": 1,
        "texCoord": 0
      },
      "pbrMetallicRoughness": {
        "baseColorFactor": [
          1,
          1,
          1,
          1
        ],
        "baseColorTexture": {
          "index": 0,
          "texCoord": 0
        },
        "metallicFactor": 1,
        "metallicRoughnessTexture": {
          "index": 1,
          "texCoord": 1
        },
        "roughnessFactor": 1
      }
    }
  ],
  "meshes": [
    {
      "primitives": [
        {
          "attributes": {
            "NORMAL": 1,
            "POSITION": 0,
            "TANGENT": 2,
            "TEXCOORD_0": 3,
            "TEXCOORD_1": 4,
            "TEXCOORD_2": 5,
            "TEXCOORD_3": 6,
            "TEXCOORD_4": 7
          },
          "indices": 8,
          "material": 0,
          "mode": 4
        }
      ]
    }
  ],
  "nodes": [
    {
      "children": [
        1
      ],
      "name": "RootNode (gltf orientation matrix)",
      "rotation": [
        -0.70710678118654746,
        -0,
        -0,
        0.70710678118654757
      ]
    },
    {
      "children": [
        2
      ],
      "name": "RootNode (model correction matrix)"
    },
    {
      "children": [
        3
      ],
      "name": "root"
    },
    {
      "children": [
        4
      ],
      "matrix": [
        1,
        0,
        0,
        0,
        0,
        2.2204460492503131e-16,
        1,
        0,
        0,
        -1,
        2.2204460492503131e-16,
        0,
        0,
        0,
        0,
        1
      ],
      "name": "GLTF_SceneRootNode"
    },
    {
      "children": [
        5
      ],
      "matrix": [
        1081.16748046875,
        0,
        0,
        0,
        0,
        1081.16748046875,
        0,
        0,
        0,
        0,
        1081.16748046875,
        0,
        -1037.1884765625,
        345.49359130859375,
        -158.32293701171875,
        1
      ],
      "name": "root_0"
    },
    {
      "children": [
        6
      ],
      "name": "gangqin_1"
    },
    {
      "children": [
        7
      ],
      "name": "gangqin_2"
    },
    {
      "mesh": 0,
      "name": ""
    }
  ],
  "samplers": [
    {
      "magFilter": 9729,
      "minFilter": 9987,
      "wrapS": 10497,
      "wrapT": 10497
    }
  ],
  "scene": 0,
  "scenes": [
    {
      "name": "OSG_Scene",
      "nodes": [
        0
      ]
    }
  ],
  "textures": [
    {
      "sampler": 0,
      "source": 0
    },
    {
      "sampler": 0,
      "source": 1
    },
    {
      "sampler": 0,
      "source": 2
    }
  ]
}

